# Blender 4.3.0
# www.blender.org
mtllib Diamond_low_Diamond_low_0.mtl
o Diamond_low_Diamond_low_0
v 0.905277 -0.512521 0.813760
v 0.909646 -0.510320 0.823613
v 0.908275 -0.516888 0.824354
v 0.909528 -0.518609 0.828262
v 0.920938 -0.517356 0.840335
v 0.919397 -0.518528 0.840290
v 0.916378 -0.528587 0.852472
v 0.921078 -0.517558 0.840827
v 0.917162 -0.529729 0.855242
v 0.916219 -0.528413 0.851618
v 0.915915 -0.527478 0.838220
v 0.919175 -0.519190 0.840681
v 0.915783 -0.527286 0.837754
v 0.909808 -0.519073 0.828960
v 0.919043 -0.518998 0.840216
v 0.900136 -0.505550 0.805330
v 0.905791 -0.504709 0.813343
v 0.906375 -0.505458 0.812869
v 0.906635 -0.505577 0.813315
v 0.909048 -0.509195 0.824445
v 0.909826 -0.510059 0.824111
v 0.904919 -0.512794 0.813749
v 0.901255 -0.516697 0.823359
v 0.898322 -0.512425 0.812993
v 0.906466 -0.505921 0.812767
v 0.905074 -0.512200 0.813265
v 0.900597 -0.506007 0.805675
v 0.915847 -0.528695 0.851607
v 0.906597 -0.528749 0.840300
v 0.915543 -0.527761 0.838208
v 0.903813 -0.530212 0.839892
v 0.900937 -0.516816 0.823842
v 0.907962 -0.517447 0.824822
v 0.900300 -0.515844 0.824180
v 0.897886 -0.512225 0.813050
v 0.915940 -0.528920 0.852459
v 0.904511 -0.530148 0.840325
v 0.906054 -0.528977 0.840374
v 0.915411 -0.527569 0.837743
v 0.906465 -0.528557 0.839835
v 0.909435 -0.519356 0.828949
v 0.916924 -0.530318 0.856203
v 0.896319 -0.532010 0.841839
v 0.903946 -0.530407 0.840365
v 0.898285 -0.512139 0.812519
v 0.900207 -0.506304 0.805663
v 0.904683 -0.512497 0.813253
v 0.910199 -0.502588 0.849471
v 0.902940 -0.501221 0.829702
v 0.897375 -0.502719 0.833885
v 0.897276 -0.511181 0.813085
v 0.899903 -0.505727 0.805323
v 0.897859 -0.511930 0.812612
v 0.905074 -0.514079 0.861650
v 0.909774 -0.503050 0.850005
v 0.908233 -0.504223 0.849961
v 0.909634 -0.502848 0.849512
v 0.898224 -0.504101 0.837440
v 0.908093 -0.504021 0.849468
v 0.898621 -0.505259 0.851689
v 0.907552 -0.504250 0.849546
v 0.898317 -0.504325 0.838290
v 0.904727 -0.513664 0.860949
v 0.907683 -0.504441 0.850011
v 0.898752 -0.505451 0.852154
v 0.894148 -0.498237 0.822797
v 0.902421 -0.501048 0.829478
v 0.899488 -0.496776 0.819112
v 0.900211 -0.497547 0.817874
v 0.893388 -0.496890 0.810808
v 0.899627 -0.496798 0.818348
v 0.906171 -0.515714 0.865264
v 0.917950 -0.501164 0.848431
v 0.910333 -0.502783 0.849943
v 0.893790 -0.498509 0.822786
v 0.894031 -0.507425 0.829224
v 0.896787 -0.502876 0.833380
v 0.899254 -0.496665 0.818623
v 0.893385 -0.496751 0.811531
v 0.894074 -0.498082 0.822196
v 0.904355 -0.513946 0.860938
v 0.898380 -0.505734 0.852143
v 0.895105 -0.514000 0.849630
v 0.892670 -0.515910 0.848940
v 0.894050 -0.507978 0.829433
v 0.889136 -0.522766 0.847090
v 0.891109 -0.503527 0.818553
v 0.894719 -0.508682 0.828711
v 0.904636 -0.514412 0.861637
v 0.893208 -0.515641 0.849503
v 0.905420 -0.515554 0.864407
v 0.898248 -0.505542 0.851678
v 0.897944 -0.504608 0.838279
v 0.894974 -0.513809 0.849165
v 0.905779 -0.516012 0.865252
v 0.889269 -0.522961 0.847563
v 0.910756 -0.522907 0.873941
v 0.903468 -0.502033 0.828976
v 0.899857 -0.496878 0.818818
v 0.893155 -0.497067 0.810801
v 0.891695 -0.504019 0.817616
v 0.891112 -0.503270 0.818090
v 0.917317 -0.530019 0.856215
v 0.925000 -0.510212 0.842707
v 0.918198 -0.531658 0.868229
v 0.904373 -0.529945 0.839833
v 0.909090 -0.518942 0.828249
v 0.905915 -0.528774 0.839882
v 0.891073 -0.502882 0.818375
v 0.893683 -0.498379 0.822185
v 0.892995 -0.497048 0.811519
v 0.897786 -0.504434 0.837427
v 0.893069 -0.515437 0.849011
v 0.894612 -0.514266 0.849060
v 0.919537 -0.518731 0.840783
v 0.921476 -0.517084 0.840896
v 0.908753 -0.517480 0.825525
v 0.908519 -0.517022 0.824836
v 0.916724 -0.530062 0.855229
v 0.896817 -0.503144 0.833871
v 0.905858 -0.515221 0.864420
v 0.894750 -0.514470 0.849552
v 0.892803 -0.516105 0.849412
v 0.921342 -0.516890 0.840423
v 0.924865 -0.510018 0.842234
v 0.908315 -0.517813 0.825512
v 0.906713 -0.506048 0.813247
v 0.899319 -0.504978 0.805797
v 0.906036 -0.504808 0.813801
v 0.905791 -0.504709 0.813343
v 0.896186 -0.531814 0.841366
v 0.907917 -0.517160 0.824343
v 0.897288 -0.511457 0.813536
v 0.897276 -0.511181 0.813085
v 0.897449 -0.502973 0.834703
v 0.917815 -0.500970 0.847959
v 0.897011 -0.503306 0.834689
v 0.897146 -0.502604 0.833391
v 0.893972 -0.497639 0.810334
v 0.900456 -0.497646 0.818332
v 0.900211 -0.497547 0.817874
v 0.891098 -0.503153 0.818858
v 0.891707 -0.504295 0.818067
v 0.891695 -0.504019 0.817616
v 0.978640 -0.606220 1.094380
v 0.991070 -0.619232 1.110768
v 0.992427 -0.603774 1.088004
v 0.988212 -0.618505 1.086608
v 0.988335 -0.633808 1.105534
v 0.987261 -0.631302 1.078120
v 0.974359 -0.629033 1.086189
v 0.973368 -0.632685 1.110232
v 0.958995 -0.629183 1.086992
v 0.964787 -0.616749 1.093960
v 0.976104 -0.618110 1.115465
v 0.964161 -0.601655 1.096876
v 0.973368 -0.632685 1.110232
v 0.958995 -0.629183 1.086992
v 0.988421 -0.626424 1.108553
v 0.983353 -0.619919 1.112668
v 0.982219 -0.625959 1.110500
v 0.976018 -0.625494 1.112446
v 0.976104 -0.618110 1.115465
v 0.981086 -0.631998 1.108331
v 0.899552 -0.504801 0.805804
v 0.906036 -0.504808 0.813801
v 0.897288 -0.511457 0.813536
v 0.917806 -0.531955 0.868217
v 0.899319 -0.504978 0.805797
v 0.893972 -0.497639 0.810334
v 0.911148 -0.522609 0.873953
v 0.891707 -0.504295 0.818067
v 0.900456 -0.497646 0.818332
v 0.893739 -0.497816 0.810327
v 0.899552 -0.504801 0.805804
v 0.893739 -0.497816 0.810327
v 0.983353 -0.619919 1.112668
v 0.988421 -0.626424 1.108553
v 0.976018 -0.625494 1.112446
v 0.991070 -0.619232 1.110768
vn 0.7323 -0.4742 -0.4888
vn 0.9391 -0.1611 -0.3036
vn 0.7277 -0.5018 -0.4677
vn 0.5546 -0.6634 -0.5023
vn 0.6418 -0.5958 -0.4829
vn 0.6331 -0.6175 -0.4669
vn 0.5872 -0.7108 -0.3873
vn 0.6672 -0.6323 -0.3939
vn 0.6457 -0.6757 -0.3556
vn 0.7226 -0.6628 -0.1965
vn 0.7865 -0.5643 -0.2509
vn 0.8487 -0.4406 -0.2926
vn 0.6938 -0.4297 -0.5779
vn 0.5949 -0.4777 -0.6465
vn 0.7895 -0.3559 -0.4999
vn 0.3305 0.2827 -0.9005
vn 0.6233 0.7027 -0.3431
vn 0.7339 0.5126 -0.4458
vn 0.8662 0.4490 -0.2191
vn 0.7541 0.6549 0.0494
vn 0.9411 0.0633 -0.3321
vn 0.2798 -0.8180 -0.5025
vn -0.0840 -0.9386 -0.3347
vn -0.2281 -0.8862 -0.4031
vn 0.8313 0.0379 -0.5545
vn 0.6632 -0.4203 -0.6192
vn 0.6155 -0.1525 -0.7733
vn 0.4528 -0.8678 -0.2047
vn 0.2089 -0.9269 -0.3120
vn 0.3430 -0.9014 -0.2643
vn 0.1808 -0.8301 -0.5274
vn -0.2995 -0.8796 -0.3697
vn 0.2811 -0.7674 -0.5762
vn -0.8338 -0.5520 0.0013
vn -0.6553 -0.7073 -0.2652
vn 0.5425 -0.7447 -0.3886
vn 0.4458 -0.8005 -0.4006
vn 0.4583 -0.7835 -0.4197
vn 0.2507 -0.7665 -0.5913
vn 0.1511 -0.8412 -0.5193
vn 0.3260 -0.6821 -0.6546
vn 0.4183 -0.8835 -0.2107
vn 0.1406 -0.9432 -0.3010
vn 0.2411 -0.9179 -0.3153
vn -0.2372 -0.7742 -0.5869
vn 0.0122 -0.6110 -0.7915
vn 0.2514 -0.7333 -0.6317
vn -0.2416 0.9186 0.3128
vn 0.2579 0.9402 0.2226
vn -0.3632 0.8861 0.2881
vn -0.8299 -0.4018 -0.3871
vn -0.3259 -0.2162 -0.9203
vn -0.6724 -0.5562 -0.4883
vn -0.5100 0.6973 0.5036
vn -0.4207 0.7639 0.4894
vn -0.4434 0.7618 0.4723
vn -0.4461 0.8004 0.4004
vn -0.5426 0.7447 0.3885
vn -0.4585 0.7835 0.4194
vn -0.3433 0.9013 0.2641
vn -0.2099 0.9268 0.3115
vn -0.4533 0.8676 0.2046
vn -0.3255 0.6824 0.6545
vn -0.1504 0.8417 0.5186
vn -0.2505 0.7667 0.5911
vn -0.3189 0.8749 0.3646
vn 0.0969 0.9198 0.3802
vn 0.1818 0.9538 0.2392
vn -0.0922 0.8252 -0.5572
vn 0.4690 0.8526 -0.2307
vn -0.2953 0.7043 0.6456
vn -0.0829 0.8591 0.5051
vn -0.1817 0.8314 0.5252
vn -0.7713 0.5310 0.3509
vn -0.9262 0.1424 0.3491
vn -0.7524 0.5383 0.3796
vn 0.0856 0.9950 0.0510
vn -0.2550 0.9647 -0.0666
vn -0.3683 0.9037 0.2183
vn -0.5953 0.4774 0.6463
vn -0.6940 0.4296 0.5777
vn -0.7902 0.3554 0.4992
vn -0.8320 0.4698 0.2949
vn -0.9827 -0.0027 0.1850
vn -0.8829 0.3812 0.2740
vn -0.9383 -0.3441 -0.0354
vn -0.7574 -0.6502 -0.0608
vn -0.5546 0.6634 0.5022
vn -0.6420 0.5957 0.4827
vn -0.5979 0.6061 0.5246
vn -0.7864 0.5646 0.2507
vn -0.7222 0.6632 0.1964
vn -0.8483 0.4416 0.2922
vn -0.6241 0.4544 0.6357
vn -0.8245 0.2955 0.4826
vn -0.5456 0.4756 0.6900
vn 0.8306 0.5567 -0.0127
vn 0.5833 0.8122 0.0106
vn -0.7486 0.3263 -0.5771
vn -0.9373 -0.2162 -0.2733
vn 0.7471 -0.6336 -0.2007
vn 0.8822 -0.3796 -0.2785
vn 0.6993 -0.6996 -0.1467
vn 0.4208 -0.7637 -0.4896
vn 0.5100 -0.6973 -0.5036
vn 0.4434 -0.7616 -0.4726
vn -0.9829 0.1829 0.0186
vn -0.7802 0.5907 0.2059
vn -0.8583 0.5061 -0.0848
vn -0.5872 0.7109 0.3872
vn -0.6670 0.6326 0.3937
vn -0.6481 0.6394 0.4137
vn 0.6482 -0.6391 -0.4139
vn 0.8316 -0.4691 -0.2975
vn 0.5924 -0.6049 -0.5322
vn 0.6859 -0.4603 -0.5636
vn 0.4919 -0.7926 -0.3603
vn -0.7677 0.5787 0.2753
vn -0.4441 0.7230 0.5292
vn -0.6333 0.6175 0.4666
vn -0.7722 0.3826 0.5073
vn 0.7713 -0.3814 -0.5095
vn 0.8228 -0.2935 -0.4867
vn 0.4446 -0.7171 -0.5367
vn 0.9298 -0.0062 -0.3681
vn -0.6067 0.0299 -0.7944
vn 0.7528 0.6505 -0.1011
vn 0.6234 0.7027 -0.3430
vn 0.0816 -0.8568 -0.5091
vn 0.3070 -0.8214 -0.4806
vn -0.8235 -0.5475 -0.1488
vn -0.8299 -0.4018 -0.3870
vn -0.4968 0.7932 0.3522
vn -0.1418 0.9444 0.2965
vn -0.6446 0.6809 0.3477
vn -0.3317 0.8579 0.3925
vn 0.1637 0.6153 -0.7711
vn -0.9762 0.0738 0.2042
vn 0.2286 0.8141 0.5338
vn 0.7427 0.1688 0.6480
vn 0.8337 0.4324 0.3433
vn 0.9845 -0.1561 -0.0799
vn 0.5683 -0.7604 0.3144
vn 0.6041 -0.7911 -0.0960
vn -0.1095 -0.9875 -0.1131
vn -0.3857 -0.6888 0.6138
vn -0.6522 -0.6969 0.2983
vn -0.8655 -0.0173 0.5007
vn -0.2113 0.2403 0.9474
vn -0.4226 0.5266 0.7376
vn 0.7492 -0.3439 0.5661
vn 0.3071 0.2235 0.9251
vn 0.2531 -0.3687 0.8945
vn -0.3327 -0.2627 0.9057
vn -0.2114 0.2403 0.9474
vn 0.1094 -0.8301 0.5467
vn 0.7528 0.6504 -0.1010
vn 0.4925 -0.8568 -0.1529
vn -0.6066 0.0299 -0.7944
vn 0.1637 0.6154 -0.7711
vn -0.3388 0.6328 0.6962
vn -0.8235 -0.5475 -0.1487
vn 0.7528 0.6505 -0.1010
vn 0.3071 0.2234 0.9251
vn 0.7491 -0.3439 0.5662
vn -0.3327 -0.2628 0.9057
vt 0.136187 0.467478
vt 0.193129 0.399231
vt 0.145413 0.371405
vt 0.148982 0.332789
vt 0.235443 0.238626
vt 0.221080 0.238472
vt 0.165353 0.133204
vt 0.235627 0.234788
vt 0.166840 0.109567
vt 0.164972 0.140780
vt 0.156272 0.229670
vt 0.216516 0.232733
vt 0.155834 0.233223
vt 0.149917 0.324328
vt 0.216284 0.239351
vt 0.129858 0.569207
vt 0.192467 0.508469
vt 0.185232 0.502465
vt 0.187165 0.496874
vt 0.206034 0.399266
vt 0.196359 0.396485
vt 0.134113 0.467301
vt 0.089202 0.390662
vt 0.083363 0.486387
vt 0.181213 0.500319
vt 0.136294 0.470798
vt 0.129991 0.561601
vt 0.159570 0.140328
vt 0.093487 0.222518
vt 0.152359 0.229418
vt 0.069826 0.224086
vt 0.086461 0.387427
vt 0.139734 0.365515
vt 0.076470 0.388583
vt 0.079063 0.487879
vt 0.160453 0.132777
vt 0.074258 0.221413
vt 0.088584 0.222686
vt 0.152181 0.233446
vt 0.092625 0.229096
vt 0.144116 0.323849
vt 0.164161 0.101356
vt 0.009802 0.213017
vt 0.069810 0.221335
vt 0.084369 0.492231
vt 0.124696 0.560930
vt 0.133439 0.470560
vt 0.379317 0.245807
vt 0.396500 0.409571
vt 0.449825 0.387420
vt 0.071974 0.498411
vt 0.123583 0.568332
vt 0.080065 0.493693
vt 0.470008 0.154021
vt 0.383759 0.243113
vt 0.398133 0.244351
vt 0.383320 0.246948
vt 0.453637 0.354142
vt 0.397585 0.249122
vt 0.462406 0.254150
vt 0.402207 0.250767
vt 0.454075 0.345625
vt 0.469133 0.161596
vt 0.403053 0.244165
vt 0.462711 0.250202
vt 0.444774 0.489261
vt 0.399287 0.412822
vt 0.394137 0.508826
vt 0.382786 0.521274
vt 0.436659 0.589963
vt 0.390862 0.516308
vt 0.473668 0.122506
vt 0.319088 0.234852
vt 0.379296 0.243050
vt 0.446821 0.489405
vt 0.503370 0.420957
vt 0.455533 0.393319
vt 0.395252 0.514751
vt 0.436647 0.582828
vt 0.444103 0.492479
vt 0.474551 0.162041
vt 0.466719 0.250775
vt 0.526423 0.254117
vt 0.549511 0.259497
vt 0.506599 0.418226
vt 0.610594 0.264539
vt 0.497809 0.518494
vt 0.516270 0.420965
vt 0.474922 0.154442
vt 0.545575 0.256137
vt 0.476371 0.130741
vt 0.466608 0.254476
vt 0.459890 0.346087
vt 0.526204 0.260748
vt 0.476486 0.122768
vt 0.610594 0.258334
vt 0.485335 0.030490
vt 0.386487 0.410802
vt 0.389803 0.510381
vt 0.440400 0.589833
vt 0.502985 0.530095
vt 0.495857 0.524083
vt 0.166973 0.101630
vt 0.300491 0.237110
vt 0.175974 0.009622
vt 0.073810 0.225234
vt 0.143674 0.332338
vt 0.088025 0.227441
vt 0.491851 0.521906
vt 0.446978 0.492724
vt 0.441238 0.583002
vt 0.458960 0.354554
vt 0.545399 0.259983
vt 0.531006 0.259858
vt 0.221309 0.233696
vt 0.240021 0.235426
vt 0.146835 0.357938
vt 0.147397 0.366166
vt 0.162932 0.109232
vt 0.457501 0.387993
vt 0.472452 0.130397
vt 0.531226 0.255072
vt 0.549977 0.256768
vt 0.239549 0.238147
vt 0.300491 0.243309
vt 0.141667 0.357532
vt 0.183157 0.494696
vt 0.116638 0.601609
vt 0.198436 0.501440
vt 0.196218 0.506916
vt 0.008808 0.219156
vt 0.140823 0.371063
vt 0.067234 0.490556
vt 0.068535 0.496303
vt 0.451698 0.379368
vt 0.318107 0.241028
vt 0.456873 0.379793
vt 0.450921 0.392909
vt 0.437130 0.603525
vt 0.377752 0.513188
vt 0.379116 0.519043
vt 0.493810 0.516320
vt 0.509074 0.523097
vt 0.506837 0.528570
vt 0.524705 0.910205
vt 0.384368 0.786258
vt 0.438389 0.991192
vt 0.323347 0.963116
vt 0.261775 0.786620
vt 0.208679 0.991192
vt 0.122450 0.910617
vt 0.154243 0.727063
vt 0.008808 0.879742
vt 0.674236 0.765310
vt 0.491174 0.725996
vt 0.638656 0.878197
vt 0.554769 0.621140
vt 0.757901 0.681587
vt 0.277837 0.729611
vt 0.258379 0.665826
vt 0.235179 0.707741
vt 0.194008 0.683210
vt 0.213909 0.629029
vt 0.210490 0.752316
vt 0.137094 0.575210
vt 0.196176 0.497776
vt 0.070034 0.487290
vt 0.170565 0.008808
vt 0.115492 0.573049
vt 0.428598 0.595765
vt 0.479911 0.029672
vt 0.506809 0.519359
vt 0.380743 0.509856
vt 0.447528 0.595845
vt 0.125815 0.603525
vt 0.440870 0.603395
vt 0.436507 0.753887
vt 0.323041 0.783852
vt 0.520772 0.672234
vt 0.313183 0.683968
s 1
usemtl Diamond_low
f 1/1/1 2/2/2 3/3/3
f 4/4/4 5/5/5 6/6/6
f 7/7/7 8/8/8 9/9/9
f 10/10/10 11/11/11 12/12/12
f 13/13/13 14/14/14 15/15/15
f 16/16/16 17/17/17 18/18/18
f 19/19/19 20/20/20 21/21/21
f 22/22/22 23/23/23 24/24/24
f 25/25/25 26/26/26 27/27/27
f 28/28/28 29/29/29 30/30/30
f 31/31/31 32/32/32 33/33/33
f 34/34/34 35/35/35 32/32/32
f 36/36/36 37/37/37 38/38/38
f 39/39/39 40/40/40 41/41/41
f 42/42/42 43/43/43 44/44/44
f 45/45/45 46/46/46 47/47/47
f 48/48/48 49/49/49 50/50/50
f 51/51/51 52/52/52 53/53/53
f 54/54/54 55/55/55 56/56/56
f 57/57/57 58/58/58 59/59/59
f 60/60/60 61/61/61 62/62/62
f 63/63/63 64/64/64 65/65/65
f 66/66/66 67/67/67 68/68/68
f 69/69/17 70/70/69 71/71/70
f 72/72/71 73/73/72 74/74/73
f 75/75/74 76/76/75 77/77/76
f 78/78/77 79/79/78 80/80/79
f 81/81/80 82/82/81 83/83/82
f 84/84/83 85/85/84 86/86/85
f 87/87/86 88/88/87 85/85/84
f 89/89/88 90/90/89 91/91/90
f 92/92/91 93/93/92 94/94/93
f 95/95/94 96/96/95 97/97/96
f 98/98/97 99/99/98 49/49/49
f 100/100/99 101/101/51 102/102/100
f 103/103/101 104/104/102 105/105/103
f 106/106/104 107/107/105 108/108/106
f 109/109/107 110/110/108 111/111/109
f 112/112/110 113/113/111 114/114/112
f 15/15/15 115/115/113 12/12/12
f 5/5/5 116/116/114 8/8/8
f 19/19/19 25/25/25 18/18/18
f 22/22/22 26/26/26 1/1/1
f 117/117/115 33/33/33 118/118/116
f 9/9/9 42/42/42 119/119/117
f 40/40/40 38/38/38 108/108/106
f 41/41/41 4/4/4 14/14/14
f 28/28/28 7/7/7 36/36/36
f 106/106/104 44/44/44 31/31/31
f 30/30/30 13/13/13 11/11/11
f 35/35/35 45/45/45 24/24/24
f 52/52/52 27/27/27 46/46/46
f 61/61/61 56/56/56 59/59/59
f 57/57/57 74/74/73 48/48/48
f 99/99/98 78/78/77 68/68/68
f 66/66/66 110/110/108 75/75/74
f 50/50/50 77/77/76 120/120/118
f 91/91/90 72/72/71 121/121/119
f 94/94/93 122/122/120 83/83/82
f 62/62/62 112/112/110 93/93/92
f 89/89/88 63/63/63 81/81/80
f 113/113/111 123/123/121 90/90/89
f 65/65/65 92/92/91 82/82/81
f 87/87/86 109/109/107 102/102/100
f 111/111/109 70/70/69 100/100/99
f 10/10/10 30/30/30 11/11/11
f 124/124/122 117/117/115 118/118/116
f 116/116/114 9/9/9 8/8/8
f 3/3/3 22/22/22 1/1/1
f 105/105/103 42/42/42 103/103/101
f 104/104/102 124/124/122 125/125/123
f 14/14/14 39/39/39 41/41/41
f 6/6/6 14/14/14 4/4/4
f 115/115/113 10/10/10 12/12/12
f 4/4/4 126/126/124 117/117/115
f 9/9/9 36/36/36 7/7/7
f 8/8/8 6/6/6 5/5/5
f 13/13/13 12/12/12 11/11/11
f 2/2/2 118/118/116 3/3/3
f 2/2/2 19/19/19 21/21/21
f 26/26/26 127/127/125 1/1/1
f 46/46/46 26/26/26 47/47/47
f 27/27/27 18/18/18 25/25/25
f 128/128/126 16/16/16 52/52/52
f 129/129/127 18/18/18 130/130/128
f 126/126/124 31/31/31 33/33/33
f 119/119/117 44/44/44 37/37/37
f 31/31/31 43/43/43 131/131/129
f 41/41/41 108/108/106 107/107/105
f 28/28/28 38/38/38 29/29/29
f 108/108/106 37/37/37 106/106/104
f 29/29/29 39/39/39 30/30/30
f 33/33/33 23/23/23 132/132/130
f 35/35/35 23/23/23 32/32/32
f 24/24/24 47/47/47 22/22/22
f 53/53/53 46/46/46 45/45/45
f 53/53/53 133/133/131 134/134/132
f 81/81/80 65/65/65 82/82/81
f 135/135/133 48/48/48 50/50/50
f 121/121/119 74/74/73 55/55/55
f 77/77/76 66/66/66 75/75/74
f 97/97/96 72/72/71 95/95/94
f 48/48/48 73/73/72 136/136/134
f 93/93/92 60/60/60 62/62/62
f 62/62/62 59/59/59 58/58/58
f 63/63/63 56/56/56 64/64/64
f 112/112/110 135/135/133 137/137/135
f 91/91/90 54/54/54 89/89/88
f 59/59/59 55/55/55 57/57/57
f 64/64/64 60/60/60 65/65/65
f 50/50/50 67/67/67 138/138/136
f 99/99/98 67/67/67 49/49/49
f 68/68/68 80/80/79 66/66/66
f 79/79/78 110/110/108 80/80/79
f 71/71/70 79/79/78 78/78/77
f 139/139/137 100/100/99 70/70/69
f 71/71/70 140/140/127 141/141/128
f 84/84/83 137/137/135 120/120/118
f 123/123/121 91/91/90 90/90/89
f 96/96/95 84/84/83 86/86/85
f 114/114/112 93/93/92 112/112/110
f 122/122/120 81/81/80 83/83/82
f 90/90/89 114/114/112 113/113/111
f 92/92/91 83/83/82 82/82/81
f 76/76/75 120/120/118 77/77/76
f 76/76/75 87/87/86 85/85/84
f 110/110/108 142/142/138 75/75/74
f 111/111/109 102/102/100 109/109/107
f 143/143/131 102/102/100 144/144/132
f 124/124/122 21/21/21 125/125/123
f 118/118/116 132/132/130 3/3/3
f 135/135/133 120/120/118 137/137/135
f 145/145/139 146/146/140 147/147/141
f 148/148/142 149/149/143 150/150/144
f 151/151/145 152/152/146 153/153/147
f 154/154/148 155/155/149 156/156/150
f 155/155/149 145/145/139 156/156/150
f 146/146/140 148/148/142 147/147/141
f 149/149/143 151/151/145 150/150/144
f 157/157/146 154/154/148 158/158/147
f 159/159/151 160/160/152 161/161/153
f 162/162/154 160/160/152 163/163/155
f 164/164/156 159/159/151 161/161/153
f 164/164/156 162/162/154 152/152/146
f 1/1/1 127/127/125 2/2/2
f 4/4/4 117/117/115 5/5/5
f 7/7/7 115/115/113 8/8/8
f 16/16/16 165/165/137 17/17/17
f 19/19/19 166/166/157 20/20/20
f 22/22/22 132/132/130 23/23/23
f 31/31/31 131/131/129 32/32/32
f 34/34/34 167/167/131 35/35/35
f 36/36/36 119/119/117 37/37/37
f 42/42/42 168/168/158 43/43/43
f 48/48/48 136/136/134 49/49/49
f 51/51/51 169/169/159 52/52/52
f 54/54/54 121/121/119 55/55/55
f 57/57/57 135/135/133 58/58/58
f 66/66/66 138/138/136 67/67/67
f 69/69/17 170/170/160 70/70/69
f 72/72/71 171/171/161 73/73/72
f 75/75/74 142/142/138 76/76/75
f 84/84/83 120/120/118 85/85/84
f 87/87/86 172/172/162 88/88/87
f 89/89/88 122/122/120 90/90/89
f 95/95/94 123/123/121 96/96/95
f 98/98/97 173/173/163 99/99/98
f 100/100/99 174/174/126 101/101/51
f 103/103/101 116/116/114 104/104/102
f 106/106/104 126/126/124 107/107/105
f 112/112/110 137/137/135 113/113/111
f 15/15/15 6/6/6 115/115/113
f 5/5/5 124/124/122 116/116/114
f 19/19/19 127/127/125 25/25/25
f 22/22/22 47/47/47 26/26/26
f 117/117/115 126/126/124 33/33/33
f 9/9/9 103/103/101 42/42/42
f 40/40/40 29/29/29 38/38/38
f 41/41/41 107/107/105 4/4/4
f 28/28/28 10/10/10 7/7/7
f 106/106/104 37/37/37 44/44/44
f 30/30/30 39/39/39 13/13/13
f 35/35/35 53/53/53 45/45/45
f 52/52/52 16/16/16 27/27/27
f 61/61/61 64/64/64 56/56/56
f 57/57/57 55/55/55 74/74/73
f 99/99/98 71/71/70 78/78/77
f 66/66/66 80/80/79 110/110/108
f 50/50/50 138/138/136 77/77/76
f 91/91/90 95/95/94 72/72/71
f 94/94/93 114/114/112 122/122/120
f 62/62/62 58/58/58 112/112/110
f 89/89/88 54/54/54 63/63/63
f 113/113/111 84/84/83 123/123/121
f 65/65/65 60/60/60 92/92/91
f 87/87/86 142/142/138 109/109/107
f 111/111/109 79/79/78 70/70/69
f 10/10/10 28/28/28 30/30/30
f 124/124/122 5/5/5 117/117/115
f 116/116/114 103/103/101 9/9/9
f 3/3/3 132/132/130 22/22/22
f 105/105/103 168/168/158 42/42/42
f 104/104/102 116/116/114 124/124/122
f 14/14/14 13/13/13 39/39/39
f 6/6/6 15/15/15 14/14/14
f 115/115/113 7/7/7 10/10/10
f 4/4/4 107/107/105 126/126/124
f 9/9/9 119/119/117 36/36/36
f 8/8/8 115/115/113 6/6/6
f 13/13/13 15/15/15 12/12/12
f 2/2/2 21/21/21 118/118/116
f 2/2/2 127/127/125 19/19/19
f 26/26/26 25/25/25 127/127/125
f 46/46/46 27/27/27 26/26/26
f 27/27/27 16/16/16 18/18/18
f 128/128/126 175/175/137 16/16/16
f 129/129/127 19/19/19 18/18/18
f 126/126/124 106/106/104 31/31/31
f 119/119/117 42/42/42 44/44/44
f 31/31/31 44/44/44 43/43/43
f 41/41/41 40/40/40 108/108/106
f 28/28/28 36/36/36 38/38/38
f 108/108/106 38/38/38 37/37/37
f 29/29/29 40/40/40 39/39/39
f 33/33/33 32/32/32 23/23/23
f 35/35/35 24/24/24 23/23/23
f 24/24/24 45/45/45 47/47/47
f 53/53/53 52/52/52 46/46/46
f 53/53/53 35/35/35 133/133/131
f 81/81/80 63/63/63 65/65/65
f 135/135/133 57/57/57 48/48/48
f 121/121/119 72/72/71 74/74/73
f 77/77/76 138/138/136 66/66/66
f 97/97/96 171/171/161 72/72/71
f 48/48/48 74/74/73 73/73/72
f 93/93/92 92/92/91 60/60/60
f 62/62/62 61/61/61 59/59/59
f 63/63/63 54/54/54 56/56/56
f 112/112/110 58/58/58 135/135/133
f 91/91/90 121/121/119 54/54/54
f 59/59/59 56/56/56 55/55/55
f 64/64/64 61/61/61 60/60/60
f 50/50/50 49/49/49 67/67/67
f 99/99/98 68/68/68 67/67/67
f 68/68/68 78/78/77 80/80/79
f 79/79/78 111/111/109 110/110/108
f 71/71/70 70/70/69 79/79/78
f 139/139/137 176/176/159 100/100/99
f 71/71/70 99/99/98 140/140/127
f 84/84/83 113/113/111 137/137/135
f 123/123/121 95/95/94 91/91/90
f 96/96/95 123/123/121 84/84/83
f 114/114/112 94/94/93 93/93/92
f 122/122/120 89/89/88 81/81/80
f 90/90/89 122/122/120 114/114/112
f 92/92/91 94/94/93 83/83/82
f 76/76/75 85/85/84 120/120/118
f 76/76/75 142/142/138 87/87/86
f 110/110/108 109/109/107 142/142/138
f 111/111/109 100/100/99 102/102/100
f 143/143/131 87/87/86 102/102/100
f 124/124/122 118/118/116 21/21/21
f 118/118/116 33/33/33 132/132/130
f 135/135/133 50/50/50 120/120/118
f 145/145/139 177/177/164 146/146/140
f 148/148/142 178/178/165 149/149/143
f 151/151/145 164/164/156 152/152/146
f 154/154/148 179/179/166 155/155/149
f 155/155/149 177/177/164 145/145/139
f 146/146/140 178/178/165 148/148/142
f 149/149/143 164/164/156 151/151/145
f 157/157/146 179/179/166 154/154/148
f 159/159/151 180/180/140 160/160/152
f 162/162/154 161/161/153 160/160/152
f 164/164/156 149/149/143 159/159/151
f 164/164/156 161/161/153 162/162/154
