# Blender 4.3.0
# www.blender.org
mtllib Hilt_low_Hilt_low_0.mtl
o Hilt_low_Hilt_low_0
v 0.919761 -0.501942 0.823080
v 0.912183 -0.497683 0.807014
v 0.915241 -0.495358 0.807107
v 0.922266 -0.482766 0.810309
v 0.909127 -0.486451 0.785496
v 0.916151 -0.473858 0.788698
v 0.914484 -0.505953 0.822921
v 0.903356 -0.510469 0.816354
v 0.926786 -0.489349 0.826283
v 0.922512 -0.503913 0.829585
v 0.928024 -0.489309 0.827744
v 0.929076 -0.503299 0.836698
v 0.927165 -0.489532 0.827039
v 0.907214 -0.516089 0.829990
v 0.905134 -0.513058 0.822637
v 0.917199 -0.508500 0.830292
v 0.911144 -0.521813 0.843879
v 0.927524 -0.509365 0.844375
v 0.919630 -0.534174 0.873870
v 0.912839 -0.476376 0.788598
v 0.906068 -0.488776 0.785403
v 0.911138 -0.496342 0.807863
v 0.905023 -0.487434 0.786251
v 0.903356 -0.510469 0.816354
v 0.912183 -0.497683 0.807014
v 0.906068 -0.488776 0.785403
v 0.907058 -0.486049 0.786247
v 0.890507 -0.524175 0.822194
v 0.889046 -0.515267 0.806314
v 0.895784 -0.520164 0.822354
v 0.871863 -0.521072 0.808783
v 0.879872 -0.508684 0.784610
v 0.885987 -0.517591 0.806221
v 0.876382 -0.527655 0.824756
v 0.875957 -0.528880 0.826168
v 0.891421 -0.527542 0.828643
v 0.888804 -0.533906 0.835478
v 0.876428 -0.528092 0.825502
v 0.897229 -0.523677 0.829687
v 0.894764 -0.534262 0.843383
v 0.903251 -0.546623 0.873374
v 0.869060 -0.509647 0.787272
v 0.865748 -0.512165 0.787172
v 0.882931 -0.506360 0.784702
v 0.888001 -0.513926 0.807162
v 0.889046 -0.515267 0.806314
v 0.880008 -0.506606 0.785428
v 0.882931 -0.506360 0.784702
v 0.912661 -0.492830 0.828845
v 0.905083 -0.488570 0.812779
v 0.907384 -0.496840 0.828685
v 0.922266 -0.482766 0.810309
v 0.902027 -0.477339 0.791260
v 0.908142 -0.486246 0.812871
v 0.896256 -0.501357 0.822119
v 0.926786 -0.489349 0.826283
v 0.928024 -0.489309 0.827744
v 0.915413 -0.494801 0.835349
v 0.921976 -0.494187 0.842462
v 0.927165 -0.489532 0.827039
v 0.900115 -0.506976 0.835754
v 0.898034 -0.503946 0.828402
v 0.910100 -0.499388 0.836057
v 0.904044 -0.512701 0.849643
v 0.920424 -0.500252 0.850139
v 0.912530 -0.525062 0.879635
v 0.912839 -0.476376 0.788598
v 0.916151 -0.473858 0.788698
v 0.898968 -0.479663 0.791168
v 0.906128 -0.489912 0.811930
v 0.905083 -0.488570 0.812779
v 0.896256 -0.501357 0.822119
v 0.901891 -0.479417 0.790442
v 0.898968 -0.479663 0.791168
v 0.883407 -0.515063 0.827959
v 0.881946 -0.506155 0.812078
v 0.878887 -0.508479 0.811985
v 0.871863 -0.521072 0.808783
v 0.872772 -0.499572 0.790374
v 0.865748 -0.512165 0.787172
v 0.888684 -0.511052 0.828119
v 0.876382 -0.527655 0.824756
v 0.884321 -0.518430 0.834408
v 0.875957 -0.528880 0.826168
v 0.881704 -0.524793 0.841243
v 0.876428 -0.528092 0.825502
v 0.890129 -0.514565 0.835452
v 0.896151 -0.537511 0.879139
v 0.869060 -0.509647 0.787272
v 0.875831 -0.497247 0.790467
v 0.882991 -0.507496 0.811230
v 0.876876 -0.498589 0.789619
v 0.881946 -0.506155 0.812078
v 0.875831 -0.497247 0.790467
v 0.874841 -0.499974 0.789623
v 0.936010 -0.521726 0.874366
v 0.907058 -0.486049 0.786247
v 0.902311 -0.509128 0.817203
v 0.905023 -0.487434 0.786251
v 0.880008 -0.506606 0.785428
v 0.881886 -0.505019 0.785551
v 0.881886 -0.505019 0.785551
v 0.928910 -0.512614 0.880131
v 0.901891 -0.479417 0.790442
v 0.900013 -0.481004 0.790319
v 0.897301 -0.502698 0.821271
v 0.900013 -0.481004 0.790319
v 0.887665 -0.525149 0.849147
v 0.874841 -0.499974 0.789623
v 0.876876 -0.498589 0.789619
vn 0.7025 -0.5547 -0.4458
vn -0.0155 -0.7941 -0.6076
vn 0.7144 -0.5522 -0.4297
vn 0.7959 0.6049 0.0241
vn 0.3697 -0.1716 -0.9132
vn 0.5254 0.7079 -0.4720
vn 0.5499 -0.7058 -0.4465
vn 0.3526 -0.4309 -0.8306
vn 0.7557 0.6481 -0.0939
vn 0.6557 -0.5655 -0.5002
vn 0.3983 0.6915 -0.6026
vn 0.6206 -0.5850 -0.5222
vn 0.5569 0.7083 -0.4338
vn -0.2531 0.3687 -0.8944
vn -0.2881 -0.5440 -0.7881
vn -0.8249 -0.3753 -0.4227
vn -0.7488 -0.1800 -0.6378
vn 0.3527 -0.4309 -0.8307
vn -0.0155 -0.7941 -0.6075
vn -0.2882 -0.5439 -0.7881
vn -0.2531 0.3687 -0.8945
vn 0.3637 -0.8122 -0.4561
vn 0.7921 -0.1803 -0.5831
vn -0.7959 -0.6049 -0.0241
vn 0.1016 -0.3754 -0.9213
vn 0.3575 -0.8235 -0.4406
vn -0.8223 -0.5512 -0.1416
vn -0.7491 -0.1805 -0.6374
vn 0.3886 -0.7685 -0.5083
vn 0.4176 -0.7393 -0.5283
vn -0.8141 -0.3337 -0.4753
vn -0.8039 -0.3023 -0.5123
vn 0.6309 0.1546 -0.7603
vn 0.5979 0.7060 -0.3796
vn 0.7922 -0.1803 -0.5831
vn 0.6310 0.1546 -0.7603
vn -0.3720 0.8244 0.4266
vn -0.9210 0.3680 0.1276
vn -0.5499 0.7058 0.4465
vn 0.7959 0.6049 0.0242
vn -0.4356 0.8620 -0.2593
vn -0.3575 0.8235 0.4406
vn -0.6031 0.7958 -0.0546
vn 0.7557 0.6482 -0.0938
vn 0.3982 0.6916 -0.6026
vn -0.4256 0.8223 0.3777
vn -0.4653 0.8088 0.3596
vn 0.5569 0.7083 -0.4337
vn -0.2531 0.3686 -0.8945
vn 0.5254 0.7080 -0.4720
vn -0.9231 0.2711 -0.2726
vn -0.9210 0.3680 0.1277
vn -0.6032 0.7957 -0.0547
vn -0.9232 0.2711 -0.2726
vn -0.7109 0.5668 0.4164
vn -0.1134 0.9819 0.1521
vn -0.7144 0.5522 0.4297
vn -0.7960 -0.6049 -0.0241
vn -0.7038 0.6582 -0.2674
vn -0.8223 -0.5511 -0.1417
vn -0.6927 0.6193 0.3696
vn -0.7492 -0.1804 -0.6373
vn -0.6684 0.6545 0.3534
vn -0.8141 -0.3336 -0.4753
vn -0.0041 0.9696 -0.2446
vn 0.3977 0.6915 -0.6031
vn -0.1133 0.9818 0.1521
vn -0.0041 0.9696 -0.2447
vn -0.7489 -0.1800 -0.6378
vn 0.3978 0.6914 -0.6031
vn 0.3978 0.6914 -0.6030
vt 0.357823 0.698726
vt 0.330883 0.816986
vt 0.356202 0.817342
vt 0.453974 0.818932
vt 0.353631 0.977211
vt 0.451368 0.978804
vt 0.313544 0.698409
vt 0.235411 0.744494
vt 0.455940 0.700705
vt 0.365940 0.650202
vt 0.462482 0.690510
vt 0.403400 0.597599
vt 0.457351 0.695496
vt 0.235376 0.643531
vt 0.235395 0.698114
vt 0.319001 0.643536
vt 0.235340 0.540306
vt 0.372026 0.540109
vt 0.235263 0.317576
vt 0.426404 0.990434
vt 0.979086 0.430296
vt 0.991698 0.590671
vt 0.991698 0.430296
vt 0.979086 0.710999
vt 0.979086 0.590671
vt 0.328217 0.976786
vt 0.344278 0.988677
vt 0.112967 0.698811
vt 0.139988 0.817052
vt 0.157246 0.698463
vt 0.016898 0.819083
vt 0.117350 0.977292
vt 0.114669 0.817425
vt 0.014851 0.700857
vt 0.008302 0.690667
vt 0.104816 0.650292
vt 0.067320 0.597715
vt 0.013436 0.695649
vt 0.151751 0.643594
vt 0.098654 0.540203
vt 0.098634 0.317588
vt 0.044587 0.990565
vt 0.019615 0.978952
vt 0.979086 0.991698
vt 0.991698 0.831327
vt 0.979086 0.831327
vt 0.126712 0.988752
vt 0.142764 0.976850
vt 0.583748 0.698808
vt 0.610729 0.817059
vt 0.628027 0.698476
vt 0.487638 0.819047
vt 0.588036 0.977290
vt 0.585410 0.817423
vt 0.706176 0.744533
vt 0.485632 0.700821
vt 0.479086 0.690628
vt 0.575614 0.650287
vt 0.538136 0.597696
vt 0.484219 0.695612
vt 0.706176 0.643570
vt 0.706176 0.698154
vt 0.622551 0.643604
vt 0.706176 0.540345
vt 0.569490 0.540195
vt 0.706176 0.317615
vt 0.515268 0.990539
vt 0.490300 0.978917
vt 0.962482 0.430297
vt 0.949870 0.590668
vt 0.962482 0.590668
vt 0.962482 0.710995
vt 0.597393 0.988754
vt 0.613450 0.976858
vt 0.828604 0.698808
vt 0.801624 0.817059
vt 0.826943 0.817423
vt 0.924714 0.819047
vt 0.824317 0.977291
vt 0.922053 0.978918
vt 0.784325 0.698476
vt 0.926721 0.700821
vt 0.836738 0.650287
vt 0.933267 0.690628
vt 0.874216 0.597696
vt 0.928134 0.695612
vt 0.789801 0.643604
vt 0.842805 0.317580
vt 0.897084 0.990539
vt 0.962482 0.991698
vt 0.949870 0.831324
vt 0.949870 0.991698
vt 0.962482 0.831324
vt 0.798902 0.976858
vt 0.814959 0.988754
vt 0.371892 0.317493
vt 0.350233 0.991619
vt 0.991698 0.710999
vt 0.328007 0.989353
vt 0.120758 0.991698
vt 0.991698 0.991698
vt 0.142983 0.989417
vt 0.569547 0.317580
vt 0.591439 0.991698
vt 0.949870 0.430297
vt 0.949870 0.710995
vt 0.613664 0.989424
vt 0.842863 0.540195
vt 0.820913 0.991698
vt 0.798688 0.989425
s 1
usemtl Hilt_low
f 1/1/1 2/2/2 3/3/3
f 4/4/4 5/5/5 6/6/6
f 7/7/7 8/8/8 2/2/2
f 2/2/2 5/5/5 3/3/3
f 9/9/9 3/3/3 4/4/4
f 10/10/10 11/11/11 12/12/12
f 13/13/13 1/1/1 9/9/9
s 0
f 7/7/7 14/14/7 15/15/7
s 1
f 1/1/1 16/16/7 7/7/7
s 0
f 16/16/7 17/17/7 14/14/7
s 1
f 12/12/12 16/16/7 10/10/10
s 0
f 18/18/7 19/19/7 17/17/7
s 1
f 5/5/5 20/20/14 6/6/6
f 21/21/15 22/22/16 23/23/17
f 24/24/18 22/22/16 25/25/19
f 26/26/20 27/27/21 5/5/5
f 28/28/22 29/29/23 30/30/7
f 31/31/24 32/32/25 33/33/26
f 8/8/8 30/30/7 29/29/23
f 32/32/25 29/29/23 33/33/26
f 34/34/27 33/33/26 28/28/22
f 35/35/28 36/36/29 37/37/30
f 28/28/22 38/38/31 34/34/27
s 0
f 14/14/7 30/30/7 15/15/7
s 1
f 39/39/7 28/28/22 30/30/7
s 0
f 17/17/7 39/39/7 14/14/7
s 1
f 37/37/30 39/39/7 40/40/7
s 0
f 17/17/7 41/41/7 40/40/7
s 1
f 42/42/14 32/32/25 43/43/32
f 44/44/33 45/45/34 46/46/35
f 45/45/34 24/24/18 46/46/35
f 47/47/21 48/48/36 32/32/25
f 49/49/37 50/50/38 51/51/39
f 52/52/40 53/53/41 54/54/42
f 55/55/43 51/51/39 50/50/38
f 53/53/41 50/50/38 54/54/42
f 56/56/44 54/54/42 49/49/37
f 57/57/45 58/58/46 59/59/47
f 49/49/37 60/60/48 56/56/44
s 0
f 61/61/39 51/51/39 62/62/39
s 1
f 63/63/39 49/49/37 51/51/39
s 0
f 64/64/39 63/63/39 61/61/39
s 1
f 59/59/47 63/63/39 65/65/39
s 0
f 66/66/39 65/65/39 64/64/39
s 1
f 67/67/49 53/53/41 68/68/50
f 69/69/51 70/70/16 71/71/52
f 70/70/16 72/72/53 71/71/52
f 73/73/21 74/74/54 53/53/41
f 75/75/55 76/76/56 77/77/57
f 78/78/58 79/79/59 80/80/32
f 81/81/39 55/55/43 76/76/56
f 76/76/56 79/79/59 77/77/57
f 82/82/60 77/77/57 78/78/58
f 83/83/61 84/84/62 85/85/63
f 86/86/64 75/75/55 82/82/60
s 0
f 81/81/39 61/61/39 62/62/39
s 1
f 75/75/55 87/87/39 81/81/39
s 0
f 87/87/39 64/64/39 61/61/39
s 1
f 85/85/63 87/87/39 83/83/61
s 0
f 64/64/39 88/88/39 66/66/39
s 1
f 79/79/59 89/89/49 80/80/32
f 90/90/65 91/91/34 92/92/66
f 72/72/53 91/91/34 93/93/67
f 94/94/68 95/95/14 79/79/59
f 1/1/1 7/7/7 2/2/2
f 4/4/4 3/3/3 5/5/5
f 7/7/7 15/15/7 8/8/8
f 2/2/2 26/26/20 5/5/5
f 9/9/9 1/1/1 3/3/3
f 10/10/10 13/13/13 11/11/11
f 13/13/13 10/10/10 1/1/1
s 0
f 7/7/7 16/16/7 14/14/7
s 1
f 1/1/1 10/10/10 16/16/7
s 0
f 16/16/7 18/18/7 17/17/7
s 1
f 12/12/12 18/18/7 16/16/7
s 0
f 18/18/7 96/96/7 19/19/7
s 1
f 5/5/5 97/97/21 20/20/14
f 21/21/15 25/25/19 22/22/16
f 24/24/18 98/98/21 22/22/16
f 26/26/20 99/99/69 27/27/21
f 28/28/22 33/33/26 29/29/23
f 31/31/24 43/43/32 32/32/25
f 8/8/8 15/15/7 30/30/7
f 32/32/25 48/48/36 29/29/23
f 34/34/27 31/31/24 33/33/26
f 35/35/28 38/38/31 36/36/29
f 28/28/22 36/36/29 38/38/31
s 0
f 14/14/7 39/39/7 30/30/7
s 1
f 39/39/7 36/36/29 28/28/22
s 0
f 17/17/7 40/40/7 39/39/7
s 1
f 37/37/30 36/36/29 39/39/7
s 0
f 17/17/7 19/19/7 41/41/7
s 1
f 42/42/14 100/100/21 32/32/25
f 44/44/33 101/101/70 45/45/34
f 45/45/34 98/98/21 24/24/18
f 47/47/21 102/102/71 48/48/36
f 49/49/37 54/54/42 50/50/38
f 52/52/40 68/68/50 53/53/41
f 55/55/43 62/62/39 51/51/39
f 53/53/41 74/74/54 50/50/38
f 56/56/44 52/52/40 54/54/42
f 57/57/45 60/60/48 58/58/46
f 49/49/37 58/58/46 60/60/48
s 0
f 61/61/39 63/63/39 51/51/39
s 1
f 63/63/39 58/58/46 49/49/37
s 0
f 64/64/39 65/65/39 63/63/39
s 1
f 59/59/47 58/58/46 63/63/39
s 0
f 66/66/39 103/103/39 65/65/39
s 1
f 67/67/49 104/104/14 53/53/41
f 69/69/51 105/105/69 70/70/16
f 70/70/16 106/106/21 72/72/53
f 73/73/21 107/107/69 74/74/54
f 75/75/55 81/81/39 76/76/56
f 78/78/58 77/77/57 79/79/59
f 81/81/39 62/62/39 55/55/43
f 76/76/56 94/94/68 79/79/59
f 82/82/60 75/75/55 77/77/57
f 83/83/61 86/86/64 84/84/62
f 86/86/64 83/83/61 75/75/55
s 0
f 81/81/39 87/87/39 61/61/39
s 1
f 75/75/55 83/83/61 87/87/39
s 0
f 87/87/39 108/108/39 64/64/39
s 1
f 85/85/63 108/108/39 87/87/39
s 0
f 64/64/39 108/108/39 88/88/39
s 1
f 79/79/59 109/109/21 89/89/49
f 90/90/65 93/93/67 91/91/34
f 72/72/53 106/106/21 91/91/34
f 94/94/68 110/110/71 95/95/14
