# Blender 4.3.0
# www.blender.org
mtllib Marco_espejo.mtl
o Marco_espejo
v -0.551879 -0.953985 -0.000559
v -0.585519 -1.028999 0.890356
v -0.607610 -1.067683 0.886265
v -0.573970 -0.992670 -0.004651
v -0.585519 -1.028999 0.890356
v -0.604110 -1.016048 0.868282
v -0.953883 -0.816687 0.871861
v -0.974156 -0.807487 0.894333
v -0.962608 -0.771158 -0.000674
v -0.996247 -0.846171 0.890242
v -0.974156 -0.807487 0.894333
v -0.940517 -0.732474 0.003417
v -0.940517 -0.732474 0.003417
v -0.921926 -0.745425 0.025491
v -0.572152 -0.944785 0.021912
v -0.551879 -0.953985 -0.000559
v -0.573970 -0.992670 -0.004651
v -0.962608 -0.771158 -0.000674
v -0.940517 -0.732474 0.003417
v -0.551879 -0.953985 -0.000559
v -0.551879 -0.953985 -0.000559
v -0.572152 -0.944785 0.021912
v -0.604110 -1.016048 0.868282
v -0.585519 -1.028999 0.890356
v -0.585519 -1.028999 0.890356
v -0.974156 -0.807487 0.894333
v -0.996247 -0.846171 0.890242
v -0.607610 -1.067683 0.886265
v -0.953883 -0.816687 0.871861
v -0.969347 -0.843766 0.868997
v -0.937390 -0.772504 0.022627
v -0.921926 -0.745425 0.025491
v -0.607610 -1.067683 0.886265
v -0.996247 -0.846171 0.890242
v -0.962608 -0.771158 -0.000674
v -0.573970 -0.992670 -0.004651
v -0.974156 -0.807487 0.894333
v -0.953883 -0.816687 0.871861
v -0.921926 -0.745425 0.025491
v -0.940517 -0.732474 0.003417
v -0.572152 -0.944785 0.021912
v -0.587616 -0.971864 0.019049
v -0.619573 -1.043127 0.865418
v -0.604110 -1.016048 0.868282
v -0.604110 -1.016048 0.868282
v -0.619573 -1.043127 0.865418
v -0.969347 -0.843766 0.868997
v -0.953883 -0.816687 0.871861
v -0.921926 -0.745425 0.025491
v -0.937390 -0.772504 0.022627
v -0.587616 -0.971864 0.019049
v -0.572152 -0.944785 0.021912
vn 0.8688 -0.4952 -0.0089
vn 0.4938 0.8647 0.0915
vn -0.8688 0.4952 0.0089
vn 0.0376 0.0838 -0.9958
vn -0.0376 -0.0838 0.9958
vn -0.4938 -0.8647 -0.0915
vt 0.962828 0.386443
vt 0.962828 0.993557
vt 0.993183 0.993557
vt 0.993183 0.386443
vt 0.028222 0.047589
vt 0.043400 0.062767
vt 0.316600 0.062767
vt 0.331778 0.047589
vt 0.898817 0.386443
vt 0.898817 0.993557
vt 0.929172 0.993557
vt 0.929172 0.386443
vt 0.331778 0.102411
vt 0.316600 0.087233
vt 0.043400 0.087233
vt 0.028222 0.102411
vt 0.028222 0.132767
vt 0.331778 0.132767
vt 0.947650 0.401621
vt 0.947650 0.978379
vt 0.331778 0.017233
vt 0.028222 0.017233
vt 0.987217 0.321687
vt 0.987217 0.298313
vt 0.352783 0.298313
vt 0.352783 0.321687
vt 0.008222 0.983557
vt 0.311778 0.983557
vt 0.311778 0.376443
vt 0.008222 0.376443
vt 0.944350 0.978379
vt 0.944350 0.401621
vt 0.352783 0.338313
vt 0.352783 0.361687
vt 0.987217 0.361687
vt 0.987217 0.338313
vt 0.009739 0.148313
vt 0.009739 0.171687
vt 0.310261 0.171687
vt 0.310261 0.148313
vt 0.310261 0.211687
vt 0.310261 0.188313
vt 0.009739 0.188313
vt 0.009739 0.211687
s 0
usemtl Magic_Mirror
f 1/1/1 2/2/1 3/3/1
f 1/1/1 3/3/1 4/4/1
f 5/5/2 6/6/2 7/7/2
f 5/5/2 7/7/2 8/8/2
f 9/9/3 10/10/3 11/11/3
f 9/9/3 11/11/3 12/12/3
f 13/13/2 14/14/2 15/15/2
f 13/13/2 15/15/2 16/16/2
f 17/17/4 18/18/4 19/13/4
f 17/17/4 19/13/4 20/16/4
f 21/1/2 22/19/2 23/20/2
f 21/1/2 23/20/2 24/2/2
f 25/5/5 26/8/5 27/21/5
f 25/5/5 27/21/5 28/22/5
f 29/23/1 30/24/1 31/25/1
f 29/23/1 31/25/1 32/26/1
f 33/27/6 34/28/6 35/29/6
f 33/27/6 35/29/6 36/30/6
f 37/11/2 38/31/2 39/32/2
f 37/11/2 39/32/2 40/12/2
f 41/33/3 42/34/3 43/35/3
f 41/33/3 43/35/3 44/36/3
f 45/37/4 46/38/4 47/39/4
f 45/37/4 47/39/4 48/40/4
f 49/41/5 50/42/5 51/43/5
f 49/41/5 51/43/5 52/44/5
