# Blender 4.3.0
# www.blender.org
mtllib Object_5.mtl
o Object_5
v -0.668679 -0.822534 1.005861
v -0.668041 -0.821912 1.005939
v -0.949124 -0.533656 1.005939
v -0.949762 -0.534278 1.005861
v -0.896724 -0.482560 0.159130
v -0.896086 -0.481938 0.159208
v -0.615003 -0.770194 0.159208
v -0.615641 -0.770816 0.159130
v -0.615641 -0.770816 0.159130
v -0.615003 -0.770194 0.159208
v -0.668041 -0.821912 1.005939
v -0.668679 -0.822534 1.005861
v -0.949762 -0.534278 1.005861
v -0.949124 -0.533656 1.005939
v -0.896086 -0.481938 0.159208
v -0.896724 -0.482560 0.159130
vn -0.0624 -0.0608 0.9962
vn 0.0624 0.0608 -0.9962
vn 0.6981 -0.7160 -0.0000
vn -0.6981 0.7160 -0.0000
vt 0.000000 1.000000
s 0
usemtl Magic_Mirror
f 1/1/1 2/1/1 3/1/1
f 1/1/1 3/1/1 4/1/1
f 5/1/2 6/1/2 7/1/2
f 5/1/2 7/1/2 8/1/2
f 9/1/3 10/1/3 11/1/3
f 9/1/3 11/1/3 12/1/3
f 13/1/4 14/1/4 15/1/4
f 13/1/4 15/1/4 16/1/4
