# Blender 4.3.0
# www.blender.org
mtllib Plane.005_HyruleShield_Triforce_mat_0.mtl
o Plane.005_HyruleShield_Triforce_mat_0
v 0.897286 0.631859 1.197261
v 0.903747 0.663319 1.243924
v 0.908739 0.694892 1.197261
v 0.898652 0.595045 1.251904
v 0.904937 0.626518 1.298566
v 0.903546 0.658582 1.251904
v 0.908613 0.660034 1.051187
v 0.910895 0.626092 1.005304
v 0.903437 0.592897 1.051187
v 0.898295 0.557697 1.197261
v 0.898140 0.589666 1.243924
v 0.896517 0.621747 1.197261
v 0.905285 0.589117 1.247246
v 0.898378 0.589648 1.244437
v 0.898536 0.557136 1.196980
v 0.906331 0.553372 1.195498
v 0.903593 0.592323 1.051467
v 0.911175 0.626070 1.004818
v 0.919418 0.625437 1.001837
v 0.911281 0.588384 1.053034
v 0.904168 0.624868 1.195499
v 0.896727 0.622276 1.196979
v 0.905208 0.626498 1.299076
v 0.898813 0.594481 1.251620
v 0.905464 0.590813 1.250142
v 0.912557 0.625933 1.301889
v 0.909063 0.695410 1.196980
v 0.917336 0.697939 1.195499
v 0.904376 0.627606 1.195498
v 0.897413 0.631303 1.196979
v 0.903985 0.663300 1.244437
v 0.910892 0.662770 1.247246
v 0.903792 0.659114 1.251620
v 0.910926 0.661723 1.250142
v 0.908855 0.660578 1.051467
v 0.917056 0.663297 1.053034
v 0.908635 0.660219 1.051281
v 0.910929 0.626089 1.005144
v 0.908688 0.660387 1.051367
v 0.910995 0.626084 1.004996
v 0.908766 0.660513 1.051432
v 0.911081 0.626077 1.004881
v 0.903431 0.592712 1.051281
v 0.903458 0.592537 1.051367
v 0.903515 0.592401 1.051432
v 0.898316 0.557517 1.197167
v 0.898160 0.589664 1.244091
v 0.898369 0.557347 1.197080
v 0.898213 0.589660 1.244247
v 0.898447 0.557213 1.197015
v 0.898289 0.589655 1.244369
v 0.896528 0.621925 1.197167
v 0.896571 0.622089 1.197080
v 0.896641 0.622212 1.197014
v 0.897270 0.631681 1.197167
v 0.903767 0.663317 1.244091
v 0.897288 0.631513 1.197080
v 0.903820 0.663313 1.244247
v 0.897339 0.631380 1.197014
v 0.903896 0.663307 1.244369
v 0.908787 0.695067 1.197167
v 0.908866 0.695227 1.197080
v 0.908962 0.695347 1.197015
v 0.898648 0.594866 1.251810
v 0.904968 0.626516 1.298734
v 0.898677 0.594696 1.251723
v 0.905030 0.626511 1.298889
v 0.898735 0.594561 1.251656
v 0.905115 0.626505 1.299010
v 0.903570 0.658759 1.251810
v 0.903624 0.658923 1.251723
v 0.903703 0.659048 1.251656
vn -0.9933 0.1145 -0.0180
vn -0.9794 0.1756 0.0992
vn -0.9705 0.2404 -0.0199
vn -0.9988 0.0143 0.0463
vn -0.9836 0.0757 0.1638
vn -0.9892 0.1392 0.0465
vn -0.9879 0.1381 -0.0708
vn -0.9789 0.0752 -0.1898
vn -0.9974 0.0148 -0.0711
vn -0.9957 -0.0903 -0.0199
vn -0.9947 -0.0254 0.0993
vn -0.9992 0.0371 -0.0180
vn -0.3801 -0.0489 0.9237
vn -0.4659 0.0190 0.8846
vn -0.5422 -0.7337 -0.4095
vn -0.4617 -0.7987 -0.3859
vn -0.5824 -0.7186 0.3801
vn -0.4183 0.0322 -0.9077
vn -0.3351 0.0259 -0.9418
vn -0.4848 -0.8048 0.3425
vn -0.3690 0.8158 -0.4454
vn -0.4802 0.7786 -0.4041
vn -0.4564 0.0351 0.8891
vn -0.5897 -0.7063 -0.3917
vn -0.4998 -0.7886 -0.3583
vn -0.3737 0.0288 0.9271
vn -0.4241 0.8078 -0.4094
vn -0.3345 0.8596 -0.3864
vn -0.4890 -0.7502 -0.4451
vn -0.5931 -0.6964 -0.4041
vn -0.4632 0.0521 0.8847
vn -0.3681 0.1053 0.9238
vn -0.4747 0.7882 -0.3917
vn -0.3735 0.8557 -0.3582
vn -0.4657 0.7992 0.3801
vn -0.3560 0.8695 0.3423
vn -0.9640 0.2654 0.0169
vn -0.9290 0.0715 -0.3631
vn -0.8964 0.4230 0.1326
vn -0.8284 0.0637 -0.5564
vn -0.7156 0.6398 0.2803
vn -0.6360 0.0490 -0.7701
vn -0.9933 -0.1147 0.0169
vn -0.9506 -0.2805 0.1327
vn -0.8050 -0.5229 0.2802
vn -0.9707 -0.2174 -0.1023
vn -0.9609 -0.0100 0.2768
vn -0.9067 -0.3695 -0.2035
vn -0.8753 0.0093 0.4834
vn -0.7503 -0.5744 -0.3274
vn -0.6894 0.0228 0.7240
vn -0.9796 0.1794 -0.0905
vn -0.9146 0.3607 -0.1829
vn -0.7336 0.6047 -0.3102
vn -0.9955 -0.0290 -0.0906
vn -0.9482 0.1557 0.2768
vn -0.9586 -0.2180 -0.1832
vn -0.8666 0.1232 0.4835
vn -0.8169 -0.4862 -0.3104
vn -0.6848 0.0824 0.7241
vn -0.9265 0.3621 -0.1023
vn -0.8401 0.5029 -0.2035
vn -0.6542 0.6818 -0.3273
vn -0.9923 -0.1176 -0.0401
vn -0.9404 0.0724 0.3322
vn -0.9469 -0.2834 -0.1517
vn -0.8500 0.0655 0.5226
vn -0.8031 -0.5181 -0.2943
vn -0.6689 0.0514 0.7415
vn -0.9625 0.2681 -0.0401
vn -0.8924 0.4249 -0.1518
vn -0.7142 0.6350 -0.2944
vt 0.160320 0.575603
vt 0.053127 0.547549
vt 0.072188 0.660699
vt 0.209298 0.690765
vt 0.235595 0.800845
vt 0.325149 0.729125
vt 0.349253 0.964670
vt 0.289814 0.868948
vt 0.225627 0.961805
vt 0.455975 0.750124
vt 0.358161 0.810160
vt 0.449759 0.872496
vt 0.301184 0.805955
vt 0.341140 0.809578
vt 0.466960 0.731999
vt 0.490608 0.690882
vt 0.207389 0.971419
vt 0.290218 0.852030
vt 0.290943 0.808334
vt 0.155099 0.996667
vt 0.481421 0.935994
vt 0.458776 0.889780
vt 0.229967 0.817364
vt 0.196067 0.676041
vt 0.162787 0.641019
vt 0.217043 0.854779
vt 0.065753 0.680882
vt 0.050322 0.725716
vt 0.229012 0.557718
vt 0.179275 0.571036
vt 0.041501 0.535104
vt 0.012507 0.507364
vt 0.345334 0.725346
vt 0.390482 0.720277
vt 0.366756 0.974969
vt 0.413659 0.997543
vt 0.353108 0.966919
vt 0.289905 0.865257
vt 0.357276 0.969329
vt 0.290002 0.861271
vt 0.361840 0.971996
vt 0.290107 0.856926
vt 0.221619 0.963879
vt 0.217279 0.966108
vt 0.212476 0.968635
vt 0.458354 0.746158
vt 0.354438 0.810038
vt 0.460928 0.741850
vt 0.350421 0.809885
vt 0.463841 0.737052
vt 0.346048 0.809729
vt 0.451725 0.876301
vt 0.453854 0.880409
vt 0.456181 0.884919
vt 0.164481 0.574583
vt 0.050588 0.544824
vt 0.168976 0.573487
vt 0.047833 0.541896
vt 0.173905 0.572276
vt 0.044841 0.538703
vt 0.070765 0.665097
vt 0.069211 0.669867
vt 0.067511 0.675213
vt 0.206381 0.687539
vt 0.234360 0.804460
vt 0.203221 0.684072
vt 0.233030 0.808361
vt 0.199761 0.680262
vt 0.231585 0.812605
vt 0.329577 0.728313
vt 0.334372 0.727449
vt 0.339699 0.726450
s 1
usemtl HyruleShield_Triforce_mat
f 1/1/1 2/2/2 3/3/3
f 4/4/4 5/5/5 6/6/6
f 7/7/7 8/8/8 9/9/9
f 10/10/10 11/11/11 12/12/12
f 13/13/13 14/14/14 15/15/15
f 13/13/13 15/15/15 16/16/16
f 17/17/17 18/18/18 19/19/19
f 17/17/17 19/19/19 20/20/20
f 21/21/21 16/16/16 15/15/15
f 21/21/21 15/15/15 22/22/22
f 23/23/23 24/24/24 25/25/25
f 23/23/23 25/25/25 26/26/26
f 13/13/13 21/21/21 22/22/22
f 13/13/13 22/22/22 14/14/14
f 27/27/27 28/28/28 29/29/29
f 27/27/27 29/29/29 30/30/30
f 31/31/31 30/30/30 29/29/29
f 31/31/31 29/29/29 32/32/32
f 24/24/24 33/33/33 34/34/34
f 24/24/24 34/34/34 25/25/25
f 27/27/27 31/31/31 32/32/32
f 27/27/27 32/32/32 28/28/28
f 33/33/33 23/23/23 26/26/26
f 33/33/33 26/26/26 34/34/34
f 35/35/35 17/17/17 20/20/20
f 35/35/35 20/20/20 36/36/36
f 8/8/8 7/7/7 37/37/37
f 8/8/8 37/37/37 38/38/38
f 38/38/38 37/37/37 39/39/39
f 38/38/38 39/39/39 40/40/40
f 40/40/40 39/39/39 41/41/41
f 40/40/40 41/41/41 42/42/42
f 42/42/42 41/41/41 35/35/35
f 42/42/42 35/35/35 18/18/18
f 7/7/7 9/9/9 43/43/43
f 7/7/7 43/43/43 37/37/37
f 37/37/37 43/43/43 44/44/44
f 37/37/37 44/44/44 39/39/39
f 39/39/39 44/44/44 45/45/45
f 39/39/39 45/45/45 41/41/41
f 41/41/41 45/45/45 17/17/17
f 41/41/41 17/17/17 35/35/35
f 9/9/9 8/8/8 38/38/38
f 9/9/9 38/38/38 43/43/43
f 43/43/43 38/38/38 40/40/40
f 43/43/43 40/40/40 44/44/44
f 44/44/44 40/40/40 42/42/42
f 44/44/44 42/42/42 45/45/45
f 45/45/45 42/42/42 18/18/18
f 45/45/45 18/18/18 17/17/17
f 11/11/11 10/10/10 46/46/46
f 11/11/11 46/46/46 47/47/47
f 47/47/47 46/46/46 48/48/48
f 47/47/47 48/48/48 49/49/49
f 49/49/49 48/48/48 50/50/50
f 49/49/49 50/50/50 51/51/51
f 51/51/51 50/50/50 15/15/15
f 51/51/51 15/15/15 14/14/14
f 10/10/10 12/12/12 52/52/52
f 10/10/10 52/52/52 46/46/46
f 46/46/46 52/52/52 53/53/53
f 46/46/46 53/53/53 48/48/48
f 48/48/48 53/53/53 54/54/54
f 48/48/48 54/54/54 50/50/50
f 50/50/50 54/54/54 22/22/22
f 50/50/50 22/22/22 15/15/15
f 12/12/12 11/11/11 47/47/47
f 12/12/12 47/47/47 52/52/52
f 52/52/52 47/47/47 49/49/49
f 52/52/52 49/49/49 53/53/53
f 53/53/53 49/49/49 51/51/51
f 53/53/53 51/51/51 54/54/54
f 54/54/54 51/51/51 14/14/14
f 54/54/54 14/14/14 22/22/22
f 2/2/2 1/1/1 55/55/55
f 2/2/2 55/55/55 56/56/56
f 56/56/56 55/55/55 57/57/57
f 56/56/56 57/57/57 58/58/58
f 58/58/58 57/57/57 59/59/59
f 58/58/58 59/59/59 60/60/60
f 60/60/60 59/59/59 30/30/30
f 60/60/60 30/30/30 31/31/31
f 1/1/1 3/3/3 61/61/61
f 1/1/1 61/61/61 55/55/55
f 55/55/55 61/61/61 62/62/62
f 55/55/55 62/62/62 57/57/57
f 57/57/57 62/62/62 63/63/63
f 57/57/57 63/63/63 59/59/59
f 59/59/59 63/63/63 27/27/27
f 59/59/59 27/27/27 30/30/30
f 3/3/3 2/2/2 56/56/56
f 3/3/3 56/56/56 61/61/61
f 61/61/61 56/56/56 58/58/58
f 61/61/61 58/58/58 62/62/62
f 62/62/62 58/58/58 60/60/60
f 62/62/62 60/60/60 63/63/63
f 63/63/63 60/60/60 31/31/31
f 63/63/63 31/31/31 27/27/27
f 5/5/5 4/4/4 64/64/64
f 5/5/5 64/64/64 65/65/65
f 65/65/65 64/64/64 66/66/66
f 65/65/65 66/66/66 67/67/67
f 67/67/67 66/66/66 68/68/68
f 67/67/67 68/68/68 69/69/69
f 69/69/69 68/68/68 24/24/24
f 69/69/69 24/24/24 23/23/23
f 4/4/4 6/6/6 70/70/70
f 4/4/4 70/70/70 64/64/64
f 64/64/64 70/70/70 71/71/71
f 64/64/64 71/71/71 66/66/66
f 66/66/66 71/71/71 72/72/72
f 66/66/66 72/72/72 68/68/68
f 68/68/68 72/72/72 33/33/33
f 68/68/68 33/33/33 24/24/24
f 6/6/6 5/5/5 65/65/65
f 6/6/6 65/65/65 70/70/70
f 70/70/70 65/65/65 67/67/67
f 70/70/70 67/67/67 71/71/71
f 71/71/71 67/67/67 69/69/69
f 71/71/71 69/69/69 72/72/72
f 72/72/72 69/69/69 23/23/23
f 72/72/72 23/23/23 33/33/33
f 18/18/18 35/35/35 36/36/36
f 18/18/18 36/36/36 19/19/19
