# Blender 4.3.0
# www.blender.org
mtllib Rupia.001.mtl
o Rupia.001
v 0.124671 -0.035416 0.827823
v 0.127744 -0.037001 0.832741
v 0.064335 -0.065343 0.862352
v 0.060956 -0.063723 0.857273
v 0.128822 -0.037581 0.838982
v 0.065563 -0.065866 0.868431
v 0.130070 -0.024826 0.827828
v 0.129181 -0.031025 0.826476
v 0.028821 0.019604 0.725994
v 0.031515 0.024959 0.728922
v 0.129181 -0.031025 0.826476
v 0.026119 0.014261 0.728922
v 0.028821 0.019604 0.725994
v 0.134246 -0.026826 0.838982
v 0.133144 -0.026326 0.832723
v 0.118329 0.041339 0.862493
v 0.119469 0.040533 0.868651
v 0.114937 0.043290 0.857273
v 0.133358 -0.033118 0.837600
v 0.133350 -0.033115 1.051158
v 0.128822 -0.037581 1.049792
v 0.133358 -0.033118 0.837600
v 0.134238 -0.026786 1.049739
v 0.133350 -0.033115 1.051158
v 0.015421 0.019657 0.728922
v 0.020770 0.016959 0.726630
v -0.003348 -0.031188 0.795831
v -0.008639 -0.028652 0.798089
v 0.001915 -0.033722 0.798043
v 0.020817 0.030355 0.728922
v 0.018109 0.025012 0.725997
v -0.082226 0.075625 0.826466
v -0.077735 0.080032 0.827823
v 0.018109 0.025012 0.725997
v -0.083102 0.069391 0.827823
v -0.082226 0.075625 0.826466
v 0.026166 0.027658 0.726630
v 0.050473 0.075844 0.795914
v 0.055576 0.073269 0.798089
v 0.045370 0.078417 0.798089
v 0.127744 -0.037001 1.056033
v 0.064520 -0.065367 1.026113
v 0.065867 -0.065730 1.020123
v 0.124671 -0.035416 1.060951
v 0.060918 -0.063882 1.031266
v 0.130039 -0.024775 1.060951
v 0.133129 -0.026282 1.056031
v 0.118331 0.041343 1.026271
v 0.114937 0.043290 1.031501
v 0.119469 0.040533 1.020123
v 0.129164 -0.031006 1.062309
v 0.028824 0.019611 1.162780
v 0.026119 0.014261 1.159853
v 0.129164 -0.031006 1.062309
v 0.031515 0.024959 1.159853
v 0.028824 0.019611 1.162780
v -0.087310 0.071443 0.838982
v -0.086203 0.070921 0.832741
v -0.071441 0.003216 0.862661
v -0.072533 0.004083 0.868651
v -0.068105 0.001201 0.857508
v -0.081848 0.082214 0.839036
v -0.086410 0.077739 0.837616
v -0.086417 0.077743 1.051175
v -0.081885 0.082197 1.049792
v -0.086410 0.077739 0.837616
v -0.087310 0.071443 1.049792
v -0.086417 0.077743 1.051175
v -0.080784 0.081622 0.832744
v -0.017604 0.109908 0.862493
v -0.014019 0.108340 0.857273
v -0.018931 0.110346 0.868651
v -0.083102 0.069391 1.060951
v -0.086203 0.070921 1.056033
v -0.071309 0.003084 1.026432
v -0.068000 0.001326 1.031501
v -0.072461 0.003758 1.020344
v -0.077795 0.080027 1.060946
v -0.082251 0.075628 1.062298
v 0.018109 0.025012 1.162777
v 0.020817 0.030355 1.159853
v -0.082251 0.075628 1.062298
v 0.015421 0.019657 1.159853
v 0.018109 0.025012 1.162777
v -0.080828 0.081608 1.056052
v -0.017604 0.109908 1.026282
v -0.018931 0.110346 1.020123
v -0.014019 0.108340 1.031501
v 0.020770 0.016959 1.162144
v -0.003532 -0.031227 1.092863
v 0.001567 -0.033800 1.090685
v -0.008639 -0.028652 1.090685
v 0.026167 0.027658 1.162144
v 0.050559 0.075669 1.092941
v 0.045370 0.078417 1.090685
v 0.055720 0.072942 1.090731
v 0.112125 0.050000 1.021532
v 0.116555 0.046285 1.019022
v 0.116606 0.046243 0.869711
v 0.112227 0.049948 0.867190
v 0.113158 0.048246 1.027419
v 0.055747 0.076780 1.085747
v 0.052586 0.080033 1.081014
v 0.048306 0.080652 1.085709
v -0.009049 0.109875 1.027448
v -0.007054 0.110118 1.021584
v 0.113217 0.048200 0.861326
v 0.055629 0.076958 0.803065
v 0.052586 0.080033 0.807760
v 0.048306 0.080653 0.803068
v -0.008976 0.109854 0.861355
v -0.006952 0.110066 0.867242
v -0.012573 0.111421 0.869752
v -0.012637 0.111438 1.019063
v 0.059510 -0.066804 1.019021
v 0.059404 -0.066856 0.869544
v 0.053889 -0.065450 1.021532
v 0.053991 -0.065501 0.867190
v 0.055910 -0.065308 1.027263
v -0.001369 -0.036037 1.085706
v -0.005650 -0.035417 1.081014
v -0.008692 -0.032342 1.085709
v -0.066281 -0.003584 1.027447
v -0.065291 -0.005332 1.021584
v 0.055985 -0.065259 0.861327
v -0.001155 -0.036024 0.803024
v -0.005650 -0.035417 0.807760
v -0.008693 -0.032342 0.803068
v -0.066276 -0.003674 0.861511
v -0.065188 -0.005384 0.867242
v -0.069619 -0.001668 0.869753
v -0.069598 -0.001784 1.019230
v 0.132261 -0.032572 0.831367
v 0.132261 -0.032572 0.831367
v 0.023465 0.022308 0.723703
v 0.023465 0.022308 0.723703
v 0.132251 -0.032561 1.057406
v 0.132251 -0.032561 1.057406
v -0.085311 0.077184 0.831368
v -0.085311 0.077184 0.831368
v -0.085326 0.077185 1.057407
v -0.085326 0.077185 1.057407
v 0.023467 0.022311 1.165071
v 0.023467 0.022311 1.165071
v 0.116411 0.045828 1.024097
v 0.051772 0.078134 1.088670
v 0.116449 0.045788 0.864642
v 0.051690 0.078257 0.800164
v -0.012855 0.111032 0.864670
v -0.012909 0.111040 1.024133
v 0.059789 -0.066460 1.023973
v -0.004750 -0.033640 1.088612
v 0.059705 -0.066439 0.864518
v -0.004609 -0.033630 0.800103
v -0.069508 -0.001239 0.864801
v -0.069440 -0.001292 1.024263
vn 0.1563 -0.8174 -0.5545
vn 0.3012 -0.9034 -0.3052
vn 0.2712 -0.9223 -0.2753
vn 0.1147 -0.8414 -0.5281
vn 0.4492 -0.8934 -0.0076
vn 0.3947 -0.9188 -0.0035
vn 0.7505 0.3601 -0.5542
vn 0.6013 -0.3040 -0.7389
vn 0.5817 -0.2946 -0.7582
vn 0.7308 0.3643 -0.5773
vn 0.1415 -0.8042 -0.5772
vn 0.5817 -0.2947 -0.7582
vn 0.9855 0.1696 -0.0075
vn 0.9068 0.2943 -0.3020
vn 0.9042 0.3293 -0.2721
vn 0.9735 0.2285 -0.0035
vn 0.7450 0.4078 -0.5278
vn 0.8932 -0.4495 -0.0070
vn 0.8929 -0.4501 0.0071
vn 0.4494 -0.8933 0.0073
vn 0.8933 -0.4495 -0.0070
vn 0.9855 0.1695 0.0075
vn 0.8930 -0.4501 0.0071
vn -0.7303 -0.3651 -0.5774
vn -0.3389 -0.6835 -0.6465
vn -0.3521 -0.7091 -0.6109
vn -0.7347 -0.4134 -0.5379
vn 0.1047 -0.8365 -0.5379
vn -0.1413 0.8043 -0.5772
vn -0.5823 0.2937 -0.7581
vn -0.6016 0.3035 -0.7389
vn -0.1564 0.8176 -0.5542
vn -0.7505 -0.3602 -0.5541
vn -0.6017 0.3035 -0.7389
vn 0.3434 0.6807 -0.6471
vn 0.3565 0.7067 -0.6112
vn 0.7349 0.4131 -0.5379
vn -0.1044 0.8365 -0.5379
vn 0.3039 -0.9042 0.3002
vn 0.2733 -0.9231 0.2705
vn 0.3949 -0.9187 0.0034
vn 0.1564 -0.8177 0.5540
vn 0.1146 -0.8417 0.5276
vn 0.7505 0.3600 0.5542
vn 0.9068 0.2941 0.3019
vn 0.9041 0.3295 0.2720
vn 0.7450 0.4079 0.5278
vn 0.9735 0.2285 0.0035
vn 0.6016 -0.3035 0.7389
vn 0.5822 -0.2937 0.7581
vn 0.1413 -0.8043 0.5772
vn 0.6016 -0.3034 0.7389
vn 0.7309 0.3641 0.5773
vn -0.9855 -0.1695 -0.0073
vn -0.9078 -0.2930 -0.3002
vn -0.9048 -0.3289 -0.2705
vn -0.9735 -0.2285 -0.0034
vn -0.7451 -0.4081 -0.5276
vn -0.4494 0.8933 -0.0076
vn -0.8927 0.4507 -0.0071
vn -0.8924 0.4513 0.0070
vn -0.4493 0.8934 0.0075
vn -0.8927 0.4506 -0.0071
vn -0.9855 -0.1698 0.0076
vn -0.8924 0.4512 0.0070
vn -0.3024 0.9041 -0.3020
vn -0.2723 0.9230 -0.2720
vn -0.1147 0.8416 -0.5277
vn -0.3949 0.9187 -0.0035
vn -0.7502 -0.3602 0.5545
vn -0.9056 -0.2946 0.3052
vn -0.9029 -0.3301 0.2753
vn -0.7449 -0.4079 0.5280
vn -0.9735 -0.2286 0.0035
vn -0.1564 0.8176 0.5542
vn -0.6018 0.3029 0.7389
vn -0.5827 0.2927 0.7581
vn -0.1405 0.8043 0.5774
vn -0.6019 0.3029 0.7389
vn -0.7308 -0.3645 0.5772
vn -0.5827 0.2926 0.7581
vn -0.3023 0.9041 0.3020
vn -0.2725 0.9229 0.2721
vn -0.3949 0.9187 0.0035
vn -0.1148 0.8415 0.5278
vn -0.3433 -0.6807 0.6471
vn -0.3564 -0.7067 0.6112
vn 0.1044 -0.8365 0.5379
vn -0.7348 -0.4131 0.5379
vn 0.3483 0.6788 0.6465
vn 0.3611 0.7046 0.6109
vn -0.1043 0.8365 0.5380
vn 0.7349 0.4130 0.5379
vn 0.4590 0.8884 0.0029
vn 0.7831 0.6219 0.0022
vn 0.7829 0.6221 -0.0021
vn 0.4589 0.8885 -0.0028
vn 0.6443 0.7126 0.2777
vn 0.6495 0.6935 0.3118
vn 0.4504 0.8927 0.0107
vn 0.1738 0.9345 0.3107
vn 0.1922 0.9419 0.2755
vn 0.4418 0.8971 0.0029
vn 0.6433 0.7143 -0.2755
vn 0.6488 0.6948 -0.3103
vn 0.4504 0.8928 -0.0105
vn 0.1742 0.9349 -0.3091
vn 0.1931 0.9420 -0.2744
vn 0.4418 0.8971 -0.0029
vn 0.0347 0.9994 -0.0022
vn 0.0350 0.9994 0.0021
vn -0.0405 -0.9992 0.0023
vn -0.0399 -0.9992 -0.0019
vn -0.4421 -0.8970 0.0028
vn -0.4419 -0.8971 -0.0030
vn -0.1953 -0.9422 0.2724
vn -0.1769 -0.9351 0.3070
vn -0.4505 -0.8927 0.0104
vn -0.6488 -0.6948 0.3103
vn -0.6428 -0.7147 0.2757
vn -0.4587 -0.8886 0.0029
vn -0.1898 -0.9413 -0.2791
vn -0.1707 -0.9343 -0.3131
vn -0.4501 -0.8929 -0.0106
vn -0.6463 -0.6984 -0.3074
vn -0.6416 -0.7170 -0.2724
vn -0.4586 -0.8886 -0.0028
vn -0.7795 -0.6264 -0.0023
vn -0.7799 -0.6259 0.0019
vn 0.8190 -0.4154 -0.3958
vn 0.8191 -0.4153 -0.3958
vn -0.0002 0.0001 -1.0000
vn -0.0002 0.0002 -1.0000
vn 0.8206 -0.4120 0.3961
vn -0.8190 0.4151 -0.3961
vn -0.8208 0.4118 0.3958
vn -0.8208 0.4119 0.3958
vn -0.0002 0.0001 1.0000
vn 0.7928 0.5834 0.1763
vn 0.4148 0.7956 0.4415
vn 0.7951 0.5798 -0.1780
vn 0.4052 0.8034 -0.4364
vn -0.0021 0.9843 -0.1764
vn -0.0063 0.9840 0.1780
vn 0.0012 -0.9856 0.1693
vn -0.4052 -0.8033 0.4365
vn -0.0042 -0.9829 -0.1841
vn -0.3934 -0.8063 -0.4416
vn -0.7934 -0.5848 -0.1693
vn -0.7880 -0.5874 0.1842
vt 0.531809 0.976179
vt 0.548949 0.971940
vt 0.498837 0.783389
vt 0.483546 0.786203
vt 0.565214 0.962853
vt 0.511825 0.775572
vt 0.026757 0.502468
vt 0.010291 0.501598
vt 0.076280 0.924564
vt 0.090886 0.915047
vt 0.533782 0.992592
vt 0.116016 0.938616
vt 0.107452 0.953790
vt 0.037894 0.468365
vt 0.029892 0.485138
vt 0.221378 0.522701
vt 0.228148 0.509238
vt 0.219734 0.538341
vt 0.573223 0.977796
vt 0.976468 0.548127
vt 0.961190 0.541112
vt 0.022613 0.461358
vt 0.433527 0.046277
vt 0.425509 0.031337
vt 0.090886 0.915047
vt 0.100316 0.930176
vt 0.250028 0.770839
vt 0.242480 0.757300
vt 0.263914 0.777639
vt 0.116016 0.938616
vt 0.107452 0.953790
vt 0.026757 0.502468
vt 0.010291 0.501598
vt 0.100316 0.930175
vt 0.250028 0.770839
vt 0.263914 0.777639
vt 0.969191 0.524327
vt 0.777753 0.486782
vt 0.770979 0.500246
vt 0.972324 0.506984
vt 0.779398 0.471139
vt 0.466958 0.032953
vt 0.449804 0.037190
vt 0.499892 0.225694
vt 0.515188 0.222879
vt 0.486904 0.233515
vt 0.988791 0.507851
vt 0.922621 0.084742
vt 0.908018 0.094263
vt 0.464987 0.016539
vt 0.882890 0.070695
vt 0.891459 0.055523
vt 0.037894 0.468365
vt 0.228149 0.509238
vt 0.219734 0.538340
vt 0.022613 0.461358
vt 0.425509 0.031337
vt 0.498837 0.783389
vt 0.511825 0.775572
vt 0.499892 0.225694
vt 0.515188 0.222880
vt 0.486904 0.233515
vt 0.988791 0.507851
vt 0.922621 0.084742
vt 0.908018 0.094263
vt 0.464987 0.016539
vt 0.882890 0.070695
vt 0.891459 0.055524
vt 0.777753 0.486782
vt 0.770979 0.500246
vt 0.779398 0.471139
vt 0.898589 0.079135
vt 0.748881 0.238472
vt 0.756434 0.252015
vt 0.734991 0.231666
vt 0.898589 0.079135
vt 0.748881 0.238472
vt 0.756434 0.252015
vt 0.509515 0.252453
vt 0.495662 0.246890
vt 0.242169 0.517277
vt 0.248655 0.531037
vt 0.515888 0.239025
vt 0.728801 0.245437
vt 0.728127 0.260852
vt 0.743243 0.259110
vt 0.763372 0.471400
vt 0.750513 0.478470
vt 0.235775 0.538091
vt 0.255670 0.750206
vt 0.270778 0.748459
vt 0.270102 0.763867
vt 0.482834 0.770042
vt 0.489192 0.756592
vt 0.503061 0.762180
vt 0.756975 0.492212
vt 0.756975 0.492212
vt 0.750512 0.478470
vt 0.489192 0.756592
vt 0.743243 0.259110
vt 0.728127 0.260852
vt 0.728801 0.245437
vt 0.515888 0.239025
vt 0.509515 0.252453
vt 0.482834 0.770042
vt 0.270102 0.763867
vt 0.270778 0.748459
vt 0.235775 0.538091
vt 0.248655 0.531037
vt 0.242169 0.517277
vt 0.495662 0.246890
vt 0.553496 0.987350
vt 0.014285 0.481605
vt 0.089206 0.942015
vt 0.984797 0.527859
vt 0.445257 0.021781
vt 0.984797 0.527859
vt 0.909699 0.067295
vt 0.909699 0.067296
vt 0.503673 0.237853
vt 0.740820 0.247118
vt 0.233766 0.525798
vt 0.258087 0.762193
vt 0.495050 0.771217
vt 0.765378 0.483692
vt 0.765378 0.483692
vt 0.740820 0.247118
vt 0.495050 0.771217
vt 0.233766 0.525798
vt 0.503673 0.237853
s 1
usemtl Rupee_aiSS
f 1/1/1 2/2/2 3/3/3
f 1/1/1 3/3/3 4/4/4
f 2/2/2 5/5/5 6/6/6
f 2/2/2 6/6/6 3/3/3
f 7/7/7 8/8/8 9/9/9
f 7/7/7 9/9/9 10/10/10
f 11/11/8 1/1/1 12/12/11
f 11/11/8 12/12/11 13/13/12
f 14/14/13 15/15/14 16/16/15
f 14/14/13 16/16/15 17/17/16
f 15/15/14 7/7/7 18/18/17
f 15/15/14 18/18/17 16/16/15
f 5/5/5 19/19/18 20/20/19
f 5/5/5 20/20/19 21/21/20
f 22/22/21 14/14/13 23/23/22
f 22/22/21 23/23/22 24/24/23
f 25/25/24 26/26/25 27/27/26
f 25/25/24 27/27/26 28/28/27
f 26/26/25 12/12/11 29/29/28
f 26/26/25 29/29/28 27/27/26
f 30/30/29 31/31/30 32/11/31
f 30/30/29 32/11/31 33/1/32
f 34/9/30 25/25/24 35/32/33
f 34/9/30 35/32/33 36/33/34
f 10/10/10 37/34/35 38/35/36
f 10/10/10 38/35/36 39/28/37
f 37/34/35 30/30/29 40/36/38
f 37/34/35 40/36/38 38/35/36
f 21/21/20 41/37/39 42/38/40
f 21/21/20 42/38/40 43/39/41
f 41/37/39 44/40/42 45/41/43
f 41/37/39 45/41/43 42/38/40
f 46/42/44 47/43/45 48/44/46
f 46/42/44 48/44/46 49/45/47
f 47/43/45 23/23/22 50/46/48
f 47/43/45 50/46/48 48/44/46
f 44/40/42 51/47/49 52/48/50
f 44/40/42 52/48/50 53/49/51
f 54/50/52 46/42/44 55/51/53
f 54/50/52 55/51/53 56/52/50
f 57/53/54 58/15/55 59/16/56
f 57/53/54 59/16/56 60/54/57
f 58/15/55 35/32/33 61/55/58
f 58/15/55 61/55/58 59/16/56
f 62/5/59 63/19/60 64/20/61
f 62/5/59 64/20/61 65/21/62
f 66/56/63 57/53/54 67/23/64
f 66/56/63 67/23/64 68/57/65
f 33/1/32 69/2/66 70/58/67
f 33/1/32 70/58/67 71/4/68
f 69/2/66 62/5/59 72/59/69
f 69/2/66 72/59/69 70/58/67
f 73/42/70 74/43/71 75/60/72
f 73/42/70 75/60/72 76/61/73
f 74/43/71 67/23/64 77/62/74
f 74/43/71 77/62/74 75/60/72
f 78/40/75 79/63/76 80/64/77
f 78/40/75 80/64/77 81/65/78
f 82/66/79 73/42/70 83/67/80
f 82/66/79 83/67/80 84/68/81
f 65/21/62 85/37/82 86/69/83
f 65/21/62 86/69/83 87/70/84
f 85/37/82 78/40/75 88/71/85
f 85/37/82 88/71/85 86/69/83
f 53/49/51 89/72/86 90/73/87
f 53/49/51 90/73/87 91/74/88
f 89/72/86 83/67/80 92/75/89
f 89/72/86 92/75/89 90/73/87
f 81/65/78 93/76/90 94/77/91
f 81/65/78 94/77/91 95/78/92
f 93/76/90 55/51/53 96/75/93
f 93/76/90 96/75/93 94/77/91
f 97/79/94 98/80/95 99/81/96
f 97/79/94 99/81/96 100/82/97
f 98/80/95 50/46/48 17/17/16
f 98/80/95 17/17/16 99/81/96
f 49/45/47 101/83/98 102/84/99
f 49/45/47 102/84/99 96/75/93
f 101/83/98 97/79/94 103/85/100
f 101/83/98 103/85/100 102/84/99
f 95/78/92 104/86/101 105/87/102
f 95/78/92 105/87/102 88/71/85
f 104/86/101 103/85/100 106/88/103
f 104/86/101 106/88/103 105/87/102
f 100/82/97 107/89/104 108/90/105
f 100/82/97 108/90/105 109/91/106
f 107/89/104 18/18/17 39/28/37
f 107/89/104 39/28/37 108/90/105
f 109/91/106 110/92/107 111/93/108
f 109/91/106 111/93/108 112/94/109
f 110/92/107 40/36/38 71/4/68
f 110/92/107 71/4/68 111/93/108
f 112/94/109 113/95/110 114/96/111
f 112/94/109 114/96/111 106/88/103
f 113/95/110 72/59/69 87/70/84
f 113/95/110 87/70/84 114/96/111
f 43/39/41 115/97/112 116/95/113
f 43/39/41 116/95/113 6/6/6
f 115/97/112 117/98/114 118/99/115
f 115/97/112 118/99/115 116/95/113
f 117/98/114 119/87/116 120/100/117
f 117/98/114 120/100/117 121/101/118
f 119/87/116 45/41/43 91/74/88
f 119/87/116 91/74/88 120/100/117
f 121/101/118 122/102/119 123/103/120
f 121/101/118 123/103/120 124/104/121
f 122/102/119 92/75/89 76/61/73
f 122/102/119 76/61/73 123/103/120
f 4/4/4 125/105/122 126/106/123
f 4/4/4 126/106/123 29/29/28
f 125/105/122 118/99/115 127/107/124
f 125/105/122 127/107/124 126/106/123
f 28/28/27 128/90/125 129/108/126
f 28/28/27 129/108/126 61/55/58
f 128/90/125 127/107/124 130/109/127
f 128/90/125 130/109/127 129/108/126
f 60/54/57 131/110/128 132/111/129
f 60/54/57 132/111/129 77/62/74
f 131/110/128 130/109/127 124/104/121
f 131/110/128 124/104/121 132/111/129
f 103/85/100 109/91/106 112/94/109
f 103/85/100 112/94/109 106/88/103
f 55/51/53 46/42/44 49/45/47
f 55/51/53 49/45/47 96/75/93
f 23/23/22 14/14/13 17/17/16
f 23/23/22 17/17/16 50/46/48
f 7/7/7 10/10/10 39/28/37
f 7/7/7 39/28/37 18/18/17
f 30/30/29 33/1/32 71/4/68
f 30/30/29 71/4/68 40/36/38
f 62/5/59 65/21/62 87/70/84
f 62/5/59 87/70/84 72/59/69
f 78/40/75 81/65/78 95/78/92
f 78/40/75 95/78/92 88/71/85
f 121/101/118 127/107/124 118/99/115
f 121/101/118 118/99/115 117/98/114
f 53/49/51 91/74/88 45/41/43
f 53/49/51 45/41/43 44/40/42
f 21/21/20 43/39/41 6/6/6
f 21/21/20 6/6/6 5/5/5
f 1/1/1 4/4/4 29/29/28
f 1/1/1 29/29/28 12/12/11
f 25/25/24 28/28/27 61/55/58
f 25/25/24 61/55/58 35/32/33
f 57/53/54 60/54/57 77/62/74
f 57/53/54 77/62/74 67/23/64
f 73/42/70 76/61/73 92/75/89
f 73/42/70 92/75/89 83/67/80
f 19/19/18 5/5/5 2/2/2
f 19/19/18 2/2/2 133/112/130
f 2/2/2 1/1/1 11/11/8
f 2/2/2 11/11/8 133/112/130
f 8/8/8 7/7/7 15/15/14
f 8/8/8 15/15/14 134/113/131
f 15/15/14 14/14/13 22/22/21
f 15/15/14 22/22/21 134/113/131
f 13/13/12 12/12/11 26/26/25
f 13/13/12 26/26/25 135/114/132
f 26/26/25 25/25/24 34/9/30
f 26/26/25 34/9/30 135/114/132
f 31/31/30 30/30/29 37/34/35
f 31/31/30 37/34/35 136/114/133
f 37/34/35 10/10/10 9/9/9
f 37/34/35 9/9/9 136/114/133
f 51/47/49 44/40/42 41/37/39
f 51/47/49 41/37/39 137/115/134
f 41/37/39 21/21/20 20/20/19
f 41/37/39 20/20/19 137/115/134
f 24/24/23 23/23/22 47/43/45
f 24/24/23 47/43/45 138/116/134
f 47/43/45 46/42/44 54/50/52
f 47/43/45 54/50/52 138/116/134
f 36/33/34 35/32/33 58/15/55
f 36/33/34 58/15/55 139/113/135
f 58/15/55 57/53/54 66/56/63
f 58/15/55 66/56/63 139/113/135
f 63/19/60 62/5/59 69/2/66
f 63/19/60 69/2/66 140/112/135
f 69/2/66 33/1/32 32/11/31
f 69/2/66 32/11/31 140/112/135
f 68/57/65 67/23/64 74/43/71
f 68/57/65 74/43/71 141/116/136
f 74/43/71 73/42/70 82/66/79
f 74/43/71 82/66/79 141/116/136
f 79/63/76 78/40/75 85/37/82
f 79/63/76 85/37/82 142/117/137
f 85/37/82 65/21/62 64/20/61
f 85/37/82 64/20/61 142/117/137
f 84/68/81 83/67/80 89/72/86
f 84/68/81 89/72/86 143/118/138
f 89/72/86 53/49/51 52/48/50
f 89/72/86 52/48/50 143/118/138
f 56/52/50 55/51/53 93/76/90
f 56/52/50 93/76/90 144/119/138
f 93/76/90 81/65/78 80/64/77
f 93/76/90 80/64/77 144/119/138
f 48/44/46 50/46/48 98/80/95
f 48/44/46 98/80/95 145/120/139
f 98/80/95 97/79/94 101/83/98
f 98/80/95 101/83/98 145/120/139
f 101/83/98 49/45/47 48/44/46
f 101/83/98 48/44/46 145/120/139
f 102/84/99 103/85/100 104/86/101
f 102/84/99 104/86/101 146/121/140
f 104/86/101 95/78/92 94/77/91
f 104/86/101 94/77/91 146/121/140
f 94/77/91 96/75/93 102/84/99
f 94/77/91 102/84/99 146/121/140
f 16/16/15 18/18/17 107/89/104
f 16/16/15 107/89/104 147/122/141
f 107/89/104 100/82/97 99/81/96
f 107/89/104 99/81/96 147/122/141
f 99/81/96 17/17/16 16/16/15
f 99/81/96 16/16/15 147/122/141
f 38/35/36 40/36/38 110/92/107
f 38/35/36 110/92/107 148/123/142
f 110/92/107 109/91/106 108/90/105
f 110/92/107 108/90/105 148/123/142
f 108/90/105 39/28/37 38/35/36
f 108/90/105 38/35/36 148/123/142
f 70/58/67 72/59/69 113/95/110
f 70/58/67 113/95/110 149/124/143
f 113/95/110 112/94/109 111/93/108
f 113/95/110 111/93/108 149/124/143
f 111/93/108 71/4/68 70/58/67
f 111/93/108 70/58/67 149/124/143
f 86/69/83 88/71/85 105/87/102
f 86/69/83 105/87/102 150/125/144
f 105/87/102 106/88/103 114/96/111
f 105/87/102 114/96/111 150/125/144
f 114/96/111 87/70/84 86/69/83
f 114/96/111 86/69/83 150/125/144
f 119/87/116 117/98/114 115/97/112
f 119/87/116 115/97/112 151/126/145
f 115/97/112 43/39/41 42/38/40
f 115/97/112 42/38/40 151/126/145
f 42/38/40 45/41/43 119/87/116
f 42/38/40 119/87/116 151/126/145
f 90/73/87 92/75/89 122/102/119
f 90/73/87 122/102/119 152/127/146
f 122/102/119 121/101/118 120/100/117
f 122/102/119 120/100/117 152/127/146
f 120/100/117 91/74/88 90/73/87
f 120/100/117 90/73/87 152/127/146
f 116/95/113 118/99/115 125/105/122
f 116/95/113 125/105/122 153/128/147
f 125/105/122 4/4/4 3/3/3
f 125/105/122 3/3/3 153/128/147
f 3/3/3 6/6/6 116/95/113
f 3/3/3 116/95/113 153/128/147
f 126/106/123 127/107/124 128/90/125
f 126/106/123 128/90/125 154/123/148
f 128/90/125 28/28/27 27/27/26
f 128/90/125 27/27/26 154/123/148
f 27/27/26 29/29/28 126/106/123
f 27/27/26 126/106/123 154/123/148
f 129/108/126 130/109/127 131/110/128
f 129/108/126 131/110/128 155/129/149
f 131/110/128 60/54/57 59/16/56
f 131/110/128 59/16/56 155/129/149
f 59/16/56 61/55/58 129/108/126
f 59/16/56 129/108/126 155/129/149
f 132/111/129 124/104/121 123/103/120
f 132/111/129 123/103/120 156/130/150
f 123/103/120 76/61/73 75/60/72
f 123/103/120 75/60/72 156/130/150
f 75/60/72 77/62/74 132/111/129
f 75/60/72 132/111/129 156/130/150
f 103/85/100 97/79/94 100/82/97
f 103/85/100 100/82/97 109/91/106
f 121/101/118 124/104/121 130/109/127
f 121/101/118 130/109/127 127/107/124
