# Blender 4.3.0
# www.blender.org
mtllib Rupia.006.mtl
o Rupia.006
v -0.399285 -0.451564 0.039614
v -0.401097 -0.450527 0.041424
v -0.385818 -0.419508 0.038437
v -0.383873 -0.420527 0.036540
v -0.401962 -0.448972 0.043743
v -0.386717 -0.418048 0.040726
v -0.398617 -0.455963 0.042785
v -0.399801 -0.454274 0.040683
v -0.343880 -0.472066 0.003815
v -0.343673 -0.473515 0.006510
v -0.399801 -0.454274 0.040683
v -0.344370 -0.469084 0.003315
v -0.343880 -0.472066 0.003815
v -0.401262 -0.453427 0.046955
v -0.400407 -0.454957 0.044607
v -0.378945 -0.463707 0.070372
v -0.379888 -0.462122 0.072613
v -0.376904 -0.464858 0.068501
v -0.402468 -0.451718 0.044820
v -0.413027 -0.395740 0.124765
v -0.412389 -0.393714 0.122660
v -0.402468 -0.451718 0.044820
v -0.411672 -0.398193 0.125860
v -0.413027 -0.395740 0.124765
v -0.338939 -0.468172 0.003394
v -0.341541 -0.469228 0.002497
v -0.348163 -0.431184 0.014041
v -0.345623 -0.430102 0.014894
v -0.350913 -0.431088 0.014859
v -0.338242 -0.472604 0.006589
v -0.338440 -0.471154 0.003897
v -0.292471 -0.436274 0.042254
v -0.293110 -0.438276 0.044337
v -0.338440 -0.471154 0.003897
v -0.293803 -0.433867 0.041159
v -0.292471 -0.436274 0.042254
v -0.340844 -0.473660 0.005692
v -0.341133 -0.475461 0.046020
v -0.343831 -0.475325 0.046796
v -0.338650 -0.474456 0.046872
v -0.412141 -0.391997 0.125013
v -0.393993 -0.376620 0.099755
v -0.394300 -0.378398 0.097579
v -0.410815 -0.390457 0.126885
v -0.392504 -0.374864 0.101631
v -0.410122 -0.394865 0.130063
v -0.411435 -0.396433 0.128211
v -0.387045 -0.420779 0.131683
v -0.385521 -0.419189 0.133723
v -0.387379 -0.422418 0.129317
v -0.411454 -0.392459 0.128969
v -0.365481 -0.357579 0.167327
v -0.365683 -0.356128 0.164633
v -0.411454 -0.392459 0.128969
v -0.364986 -0.360560 0.167828
v -0.365481 -0.357579 0.167327
v -0.292236 -0.430563 0.045350
v -0.292480 -0.432304 0.043015
v -0.316885 -0.407884 0.039579
v -0.316545 -0.406314 0.041905
v -0.318408 -0.409420 0.037545
v -0.291549 -0.435018 0.048591
v -0.290897 -0.432996 0.046460
v -0.301456 -0.377017 0.126405
v -0.301962 -0.379761 0.127479
v -0.290897 -0.432996 0.046460
v -0.302663 -0.375306 0.124267
v -0.301456 -0.377017 0.126405
v -0.291792 -0.436741 0.046214
v -0.309934 -0.452130 0.071383
v -0.311435 -0.453874 0.069460
v -0.309625 -0.450334 0.073642
v -0.305332 -0.372760 0.128430
v -0.303524 -0.373775 0.126603
v -0.325068 -0.364948 0.100869
v -0.327021 -0.363875 0.102721
v -0.324158 -0.366473 0.098621
v -0.304618 -0.377154 0.131598
v -0.304124 -0.374453 0.130535
v -0.360043 -0.356666 0.167404
v -0.359555 -0.359649 0.167907
v -0.304124 -0.374453 0.130535
v -0.360252 -0.355217 0.164712
v -0.360043 -0.356666 0.167404
v -0.302823 -0.378193 0.129800
v -0.318035 -0.409197 0.132697
v -0.317116 -0.410630 0.130346
v -0.320052 -0.408205 0.134682
v -0.363080 -0.355072 0.165530
v -0.362794 -0.353272 0.125204
v -0.365275 -0.354276 0.124350
v -0.360094 -0.353407 0.124426
v -0.362384 -0.359504 0.168725
v -0.355900 -0.397573 0.157178
v -0.353121 -0.397761 0.156404
v -0.358442 -0.398555 0.156283
v -0.382245 -0.423129 0.131288
v -0.384749 -0.423726 0.129958
v -0.377395 -0.462863 0.074060
v -0.374664 -0.463593 0.073510
v -0.383376 -0.421309 0.133187
v -0.357224 -0.401004 0.155346
v -0.354960 -0.402466 0.153997
v -0.353414 -0.400415 0.155416
v -0.321340 -0.410888 0.134102
v -0.321743 -0.412964 0.132193
v -0.375196 -0.464845 0.071006
v -0.343152 -0.475125 0.049554
v -0.341446 -0.474092 0.051705
v -0.339435 -0.474501 0.049610
v -0.313158 -0.454435 0.071929
v -0.314161 -0.453429 0.074415
v -0.311811 -0.451854 0.075040
v -0.319167 -0.412707 0.130930
v -0.392114 -0.376878 0.096182
v -0.384695 -0.416019 0.040201
v -0.389764 -0.375303 0.096807
v -0.382182 -0.415768 0.039029
v -0.390776 -0.374317 0.099217
v -0.364490 -0.354231 0.121612
v -0.362479 -0.354641 0.119516
v -0.360772 -0.353607 0.121668
v -0.328729 -0.363887 0.100216
v -0.329261 -0.365139 0.097712
v -0.382585 -0.417844 0.037120
v -0.350587 -0.428381 0.015818
v -0.348964 -0.426266 0.017225
v -0.346793 -0.427692 0.015862
v -0.320547 -0.407357 0.038077
v -0.321680 -0.405604 0.039934
v -0.319175 -0.405006 0.041264
v -0.326606 -0.365796 0.097195
v -0.401605 -0.453256 0.042493
v -0.401605 -0.453256 0.042493
v -0.341047 -0.472211 0.002998
v -0.341047 -0.472211 0.002998
v -0.412778 -0.394008 0.127111
v -0.412778 -0.394008 0.127111
v -0.291146 -0.434727 0.044113
v -0.291146 -0.434727 0.044113
v -0.302320 -0.375475 0.128728
v -0.302320 -0.375475 0.128728
v -0.362876 -0.356521 0.168224
v -0.362876 -0.356521 0.168224
v -0.385062 -0.422227 0.131732
v -0.355517 -0.399707 0.156312
v -0.377201 -0.464020 0.072035
v -0.341186 -0.475347 0.048332
v -0.311552 -0.453005 0.073011
v -0.319416 -0.411197 0.132701
v -0.392376 -0.375748 0.098151
v -0.362740 -0.353386 0.122891
v -0.384453 -0.417531 0.038455
v -0.348522 -0.429046 0.014908
v -0.318863 -0.406457 0.039526
v -0.326789 -0.364659 0.099216
vn -0.5244 0.1304 -0.8414
vn -0.7185 0.2540 -0.6475
vn -0.7075 0.2986 -0.6406
vn -0.5064 0.1821 -0.8429
vn -0.8667 0.3418 -0.3632
vn -0.8365 0.3882 -0.3867
vn -0.3577 -0.9307 -0.0761
vn -0.5850 -0.5324 -0.6119
vn -0.5616 -0.5393 -0.6275
vn -0.3367 -0.9366 -0.0975
vn -0.5850 -0.5323 -0.6119
vn -0.5024 0.1165 -0.8567
vn -0.7162 -0.6162 0.3276
vn -0.5503 -0.8242 0.1336
vn -0.5318 -0.8284 0.1757
vn -0.6740 -0.6457 0.3588
vn -0.3295 -0.9436 -0.0309
vn -0.9852 -0.1702 -0.0196
vn -0.9868 -0.1616 -0.0085
vn -0.8685 0.3502 -0.3509
vn -0.9852 -0.1702 -0.0195
vn -0.7179 -0.6076 0.3398
vn 0.4602 0.2784 -0.8431
vn -0.0321 0.2444 -0.9692
vn -0.0394 0.2878 -0.9569
vn 0.4326 0.3342 -0.8374
vn -0.4943 0.1784 -0.8508
vn 0.6265 -0.7750 -0.0834
vn 0.7247 -0.3244 -0.6080
vn 0.7440 -0.3099 -0.5920
vn 0.6439 -0.7627 -0.0614
vn 0.4770 0.2988 -0.8265
vn 0.7440 -0.3098 -0.5920
vn 0.1660 -0.9825 -0.0847
vn 0.1659 -0.9854 -0.0386
vn -0.3171 -0.9476 -0.0389
vn 0.6099 -0.7921 -0.0252
vn -0.7862 0.5984 -0.1543
vn -0.7684 0.6092 -0.1960
vn -0.8373 0.3921 -0.3810
vn -0.6439 0.7626 0.0612
vn -0.6201 0.7844 0.0167
vn -0.4771 -0.2986 0.8266
vn -0.6154 -0.4798 0.6254
vn -0.5902 -0.5183 0.6189
vn -0.4431 -0.3417 0.8288
vn -0.6748 -0.6417 0.3645
vn -0.7440 0.3099 0.5920
vn -0.7246 0.3245 0.6080
vn -0.6265 0.7750 0.0834
vn -0.7440 0.3098 0.5920
vn -0.4612 -0.2781 0.8426
vn -0.7246 0.3244 0.6080
vn 0.7179 0.6077 -0.3396
vn 0.6166 0.4806 -0.6236
vn 0.5910 0.5191 -0.6175
vn 0.6748 0.6418 -0.3644
vn 0.4430 0.3419 -0.8288
vn 0.8685 -0.3503 0.3507
vn 0.9869 0.1611 0.0088
vn 0.9855 0.1686 0.0207
vn 0.8668 -0.3417 0.3631
vn 0.9869 0.1612 0.0088
vn 0.7161 0.6163 -0.3276
vn 0.9855 0.1687 0.0207
vn 0.7851 -0.6001 0.1531
vn 0.7677 -0.6105 0.1949
vn 0.6201 -0.7844 -0.0169
vn 0.8373 -0.3921 0.3809
vn 0.3575 0.9308 0.0763
vn 0.5487 0.8257 -0.1309
vn 0.5300 0.8301 -0.1731
vn 0.3293 0.9437 0.0311
vn 0.6739 0.6458 -0.3588
vn 0.5246 -0.1306 0.8413
vn 0.5848 0.5333 0.6112
vn 0.5613 0.5411 0.6262
vn 0.5016 -0.1170 0.8572
vn 0.5848 0.5334 0.6111
vn 0.3366 0.9366 0.0974
vn 0.5613 0.5412 0.6262
vn 0.7201 -0.2558 0.6450
vn 0.7093 -0.3001 0.6379
vn 0.8366 -0.3882 0.3866
vn 0.5065 -0.1823 0.8427
vn -0.1661 0.9825 0.0848
vn -0.1659 0.9854 0.0386
vn -0.6099 0.7921 0.0252
vn 0.3171 0.9476 0.0389
vn 0.0218 -0.2461 0.9690
vn 0.0294 -0.2895 0.9567
vn 0.4940 -0.1786 0.8509
vn -0.4330 -0.3341 0.8372
vn 0.1166 -0.8045 0.5823
vn -0.2987 -0.7986 0.5225
vn -0.2979 -0.8011 0.5190
vn 0.1173 -0.8078 0.5777
vn -0.1635 -0.6291 0.7599
vn -0.1820 -0.6000 0.7790
vn 0.1252 -0.7985 0.5888
vn 0.3440 -0.5132 0.7863
vn 0.3368 -0.5474 0.7661
vn 0.1356 -0.8014 0.5826
vn -0.1022 -0.9452 0.3101
vn -0.1139 -0.9553 0.2728
vn 0.1276 -0.8106 0.5715
vn 0.4106 -0.8672 0.2819
vn 0.3953 -0.8615 0.3186
vn 0.1363 -0.8046 0.5779
vn 0.5284 -0.6625 0.5310
vn 0.5277 -0.6602 0.5345
vn -0.5235 0.6654 -0.5322
vn -0.5236 0.6626 -0.5355
vn -0.1359 0.8047 -0.5780
vn -0.1355 0.8014 -0.5826
vn -0.3933 0.8616 -0.3208
vn -0.4083 0.8674 -0.2843
vn -0.1275 0.8105 -0.5716
vn 0.1139 0.9553 -0.2728
vn 0.1015 0.9453 -0.3099
vn -0.1176 0.8078 -0.5776
vn -0.3380 0.5438 -0.7682
vn -0.3462 0.5101 -0.7873
vn -0.1256 0.7985 -0.5887
vn 0.1762 0.6041 -0.7772
vn 0.1583 0.6336 -0.7573
vn -0.1171 0.8046 -0.5822
vn 0.2932 0.7997 -0.5240
vn 0.2933 0.8019 -0.5204
vn -0.8632 -0.3760 -0.3367
vn -0.8632 -0.3761 -0.3367
vn 0.1078 -0.5703 -0.8144
vn -0.9479 0.0726 0.3103
vn -0.9479 0.0725 0.3103
vn 0.9483 -0.0754 -0.3083
vn 0.8627 0.3792 0.3345
vn -0.1074 0.5703 0.8144
vn -0.3468 -0.6796 0.6465
vn 0.0542 -0.4722 0.8798
vn -0.3126 -0.8804 0.3566
vn 0.1608 -0.9728 0.1666
vn 0.5691 -0.7333 0.3721
vn 0.5342 -0.5289 0.6595
vn -0.5683 0.7305 -0.3787
vn -0.1608 0.9728 -0.1665
vn -0.5243 0.5301 -0.6665
vn -0.0777 0.4681 -0.8803
vn 0.3458 0.6847 -0.6416
vn 0.3019 0.8852 -0.3538
vt 0.531809 0.976179
vt 0.548949 0.971940
vt 0.498837 0.783389
vt 0.483546 0.786203
vt 0.565214 0.962853
vt 0.511825 0.775572
vt 0.026757 0.502468
vt 0.010291 0.501598
vt 0.076280 0.924564
vt 0.090886 0.915047
vt 0.533782 0.992592
vt 0.116016 0.938616
vt 0.107452 0.953790
vt 0.037894 0.468365
vt 0.029892 0.485138
vt 0.221378 0.522701
vt 0.228148 0.509238
vt 0.219734 0.538341
vt 0.573223 0.977796
vt 0.976468 0.548127
vt 0.961190 0.541112
vt 0.022613 0.461358
vt 0.433527 0.046277
vt 0.425509 0.031337
vt 0.090886 0.915047
vt 0.100316 0.930176
vt 0.250028 0.770839
vt 0.242480 0.757300
vt 0.263914 0.777639
vt 0.116016 0.938616
vt 0.107452 0.953790
vt 0.026757 0.502468
vt 0.010291 0.501598
vt 0.100316 0.930175
vt 0.250028 0.770839
vt 0.263914 0.777639
vt 0.969191 0.524327
vt 0.777753 0.486782
vt 0.770979 0.500246
vt 0.972324 0.506984
vt 0.779398 0.471139
vt 0.466958 0.032953
vt 0.449804 0.037190
vt 0.499892 0.225694
vt 0.515188 0.222879
vt 0.486904 0.233515
vt 0.988791 0.507851
vt 0.922621 0.084742
vt 0.908018 0.094263
vt 0.464987 0.016539
vt 0.882890 0.070695
vt 0.891459 0.055523
vt 0.037894 0.468365
vt 0.228149 0.509238
vt 0.219734 0.538340
vt 0.022613 0.461358
vt 0.425509 0.031337
vt 0.498837 0.783389
vt 0.511825 0.775572
vt 0.499892 0.225694
vt 0.515188 0.222880
vt 0.486904 0.233515
vt 0.988791 0.507851
vt 0.922621 0.084742
vt 0.908018 0.094263
vt 0.464987 0.016539
vt 0.882890 0.070695
vt 0.891459 0.055524
vt 0.777753 0.486782
vt 0.770979 0.500246
vt 0.779398 0.471139
vt 0.898589 0.079135
vt 0.748881 0.238472
vt 0.756434 0.252015
vt 0.734991 0.231666
vt 0.898589 0.079135
vt 0.748881 0.238472
vt 0.756434 0.252015
vt 0.509515 0.252453
vt 0.495662 0.246890
vt 0.242169 0.517277
vt 0.248655 0.531037
vt 0.515888 0.239025
vt 0.728801 0.245437
vt 0.728127 0.260852
vt 0.743243 0.259110
vt 0.763372 0.471400
vt 0.750513 0.478470
vt 0.235775 0.538091
vt 0.255670 0.750206
vt 0.270778 0.748459
vt 0.270102 0.763867
vt 0.482834 0.770042
vt 0.489192 0.756592
vt 0.503061 0.762180
vt 0.756975 0.492212
vt 0.756975 0.492212
vt 0.750512 0.478470
vt 0.489192 0.756592
vt 0.743243 0.259110
vt 0.728127 0.260852
vt 0.728801 0.245437
vt 0.515888 0.239025
vt 0.509515 0.252453
vt 0.482834 0.770042
vt 0.270102 0.763867
vt 0.270778 0.748459
vt 0.235775 0.538091
vt 0.248655 0.531037
vt 0.242169 0.517277
vt 0.495662 0.246890
vt 0.553496 0.987350
vt 0.014285 0.481605
vt 0.089206 0.942015
vt 0.984797 0.527859
vt 0.445257 0.021781
vt 0.984797 0.527859
vt 0.909699 0.067295
vt 0.909699 0.067296
vt 0.503673 0.237853
vt 0.740820 0.247118
vt 0.233766 0.525798
vt 0.258087 0.762193
vt 0.495050 0.771217
vt 0.765378 0.483692
vt 0.765378 0.483692
vt 0.740820 0.247118
vt 0.495050 0.771217
vt 0.233766 0.525798
vt 0.503673 0.237853
s 1
usemtl Rupee_aiSS.004
f 1/1/1 2/2/2 3/3/3
f 1/1/1 3/3/3 4/4/4
f 2/2/2 5/5/5 6/6/6
f 2/2/2 6/6/6 3/3/3
f 7/7/7 8/8/8 9/9/9
f 7/7/7 9/9/9 10/10/10
f 11/11/11 1/1/1 12/12/12
f 11/11/11 12/12/12 13/13/9
f 14/14/13 15/15/14 16/16/15
f 14/14/13 16/16/15 17/17/16
f 15/15/14 7/7/7 18/18/17
f 15/15/14 18/18/17 16/16/15
f 5/5/5 19/19/18 20/20/19
f 5/5/5 20/20/19 21/21/20
f 22/22/21 14/14/13 23/23/22
f 22/22/21 23/23/22 24/24/19
f 25/25/23 26/26/24 27/27/25
f 25/25/23 27/27/25 28/28/26
f 26/26/24 12/12/12 29/29/27
f 26/26/24 29/29/27 27/27/25
f 30/30/28 31/31/29 32/11/30
f 30/30/28 32/11/30 33/1/31
f 34/9/29 25/25/23 35/32/32
f 34/9/29 35/32/32 36/33/33
f 10/10/10 37/34/34 38/35/35
f 10/10/10 38/35/35 39/28/36
f 37/34/34 30/30/28 40/36/37
f 37/34/34 40/36/37 38/35/35
f 21/21/20 41/37/38 42/38/39
f 21/21/20 42/38/39 43/39/40
f 41/37/38 44/40/41 45/41/42
f 41/37/38 45/41/42 42/38/39
f 46/42/43 47/43/44 48/44/45
f 46/42/43 48/44/45 49/45/46
f 47/43/44 23/23/22 50/46/47
f 47/43/44 50/46/47 48/44/45
f 44/40/41 51/47/48 52/48/49
f 44/40/41 52/48/49 53/49/50
f 54/50/51 46/42/43 55/51/52
f 54/50/51 55/51/52 56/52/53
f 57/53/54 58/15/55 59/16/56
f 57/53/54 59/16/56 60/54/57
f 58/15/55 35/32/32 61/55/58
f 58/15/55 61/55/58 59/16/56
f 62/5/59 63/19/60 64/20/61
f 62/5/59 64/20/61 65/21/62
f 66/56/63 57/53/54 67/23/64
f 66/56/63 67/23/64 68/57/65
f 33/1/31 69/2/66 70/58/67
f 33/1/31 70/58/67 71/4/68
f 69/2/66 62/5/59 72/59/69
f 69/2/66 72/59/69 70/58/67
f 73/42/70 74/43/71 75/60/72
f 73/42/70 75/60/72 76/61/73
f 74/43/71 67/23/64 77/62/74
f 74/43/71 77/62/74 75/60/72
f 78/40/75 79/63/76 80/64/77
f 78/40/75 80/64/77 81/65/78
f 82/66/79 73/42/70 83/67/80
f 82/66/79 83/67/80 84/68/81
f 65/21/62 85/37/82 86/69/83
f 65/21/62 86/69/83 87/70/84
f 85/37/82 78/40/75 88/71/85
f 85/37/82 88/71/85 86/69/83
f 53/49/50 89/72/86 90/73/87
f 53/49/50 90/73/87 91/74/88
f 89/72/86 83/67/80 92/75/89
f 89/72/86 92/75/89 90/73/87
f 81/65/78 93/76/90 94/77/91
f 81/65/78 94/77/91 95/78/92
f 93/76/90 55/51/52 96/75/93
f 93/76/90 96/75/93 94/77/91
f 97/79/94 98/80/95 99/81/96
f 97/79/94 99/81/96 100/82/97
f 98/80/95 50/46/47 17/17/16
f 98/80/95 17/17/16 99/81/96
f 49/45/46 101/83/98 102/84/99
f 49/45/46 102/84/99 96/75/93
f 101/83/98 97/79/94 103/85/100
f 101/83/98 103/85/100 102/84/99
f 95/78/92 104/86/101 105/87/102
f 95/78/92 105/87/102 88/71/85
f 104/86/101 103/85/100 106/88/103
f 104/86/101 106/88/103 105/87/102
f 100/82/97 107/89/104 108/90/105
f 100/82/97 108/90/105 109/91/106
f 107/89/104 18/18/17 39/28/36
f 107/89/104 39/28/36 108/90/105
f 109/91/106 110/92/107 111/93/108
f 109/91/106 111/93/108 112/94/109
f 110/92/107 40/36/37 71/4/68
f 110/92/107 71/4/68 111/93/108
f 112/94/109 113/95/110 114/96/111
f 112/94/109 114/96/111 106/88/103
f 113/95/110 72/59/69 87/70/84
f 113/95/110 87/70/84 114/96/111
f 43/39/40 115/97/112 116/95/113
f 43/39/40 116/95/113 6/6/6
f 115/97/112 117/98/114 118/99/115
f 115/97/112 118/99/115 116/95/113
f 117/98/114 119/87/116 120/100/117
f 117/98/114 120/100/117 121/101/118
f 119/87/116 45/41/42 91/74/88
f 119/87/116 91/74/88 120/100/117
f 121/101/118 122/102/119 123/103/120
f 121/101/118 123/103/120 124/104/121
f 122/102/119 92/75/89 76/61/73
f 122/102/119 76/61/73 123/103/120
f 4/4/4 125/105/122 126/106/123
f 4/4/4 126/106/123 29/29/27
f 125/105/122 118/99/115 127/107/124
f 125/105/122 127/107/124 126/106/123
f 28/28/26 128/90/125 129/108/126
f 28/28/26 129/108/126 61/55/58
f 128/90/125 127/107/124 130/109/127
f 128/90/125 130/109/127 129/108/126
f 60/54/57 131/110/128 132/111/129
f 60/54/57 132/111/129 77/62/74
f 131/110/128 130/109/127 124/104/121
f 131/110/128 124/104/121 132/111/129
f 103/85/100 109/91/106 112/94/109
f 103/85/100 112/94/109 106/88/103
f 55/51/52 46/42/43 49/45/46
f 55/51/52 49/45/46 96/75/93
f 23/23/22 14/14/13 17/17/16
f 23/23/22 17/17/16 50/46/47
f 7/7/7 10/10/10 39/28/36
f 7/7/7 39/28/36 18/18/17
f 30/30/28 33/1/31 71/4/68
f 30/30/28 71/4/68 40/36/37
f 62/5/59 65/21/62 87/70/84
f 62/5/59 87/70/84 72/59/69
f 78/40/75 81/65/78 95/78/92
f 78/40/75 95/78/92 88/71/85
f 121/101/118 127/107/124 118/99/115
f 121/101/118 118/99/115 117/98/114
f 53/49/50 91/74/88 45/41/42
f 53/49/50 45/41/42 44/40/41
f 21/21/20 43/39/40 6/6/6
f 21/21/20 6/6/6 5/5/5
f 1/1/1 4/4/4 29/29/27
f 1/1/1 29/29/27 12/12/12
f 25/25/23 28/28/26 61/55/58
f 25/25/23 61/55/58 35/32/32
f 57/53/54 60/54/57 77/62/74
f 57/53/54 77/62/74 67/23/64
f 73/42/70 76/61/73 92/75/89
f 73/42/70 92/75/89 83/67/80
f 19/19/18 5/5/5 2/2/2
f 19/19/18 2/2/2 133/112/130
f 2/2/2 1/1/1 11/11/11
f 2/2/2 11/11/11 133/112/130
f 8/8/8 7/7/7 15/15/14
f 8/8/8 15/15/14 134/113/131
f 15/15/14 14/14/13 22/22/21
f 15/15/14 22/22/21 134/113/131
f 13/13/9 12/12/12 26/26/24
f 13/13/9 26/26/24 135/114/132
f 26/26/24 25/25/23 34/9/29
f 26/26/24 34/9/29 135/114/132
f 31/31/29 30/30/28 37/34/34
f 31/31/29 37/34/34 136/114/132
f 37/34/34 10/10/10 9/9/9
f 37/34/34 9/9/9 136/114/132
f 51/47/48 44/40/41 41/37/38
f 51/47/48 41/37/38 137/115/133
f 41/37/38 21/21/20 20/20/19
f 41/37/38 20/20/19 137/115/133
f 24/24/19 23/23/22 47/43/44
f 24/24/19 47/43/44 138/116/134
f 47/43/44 46/42/43 54/50/51
f 47/43/44 54/50/51 138/116/134
f 36/33/33 35/32/32 58/15/55
f 36/33/33 58/15/55 139/113/135
f 58/15/55 57/53/54 66/56/63
f 58/15/55 66/56/63 139/113/135
f 63/19/60 62/5/59 69/2/66
f 63/19/60 69/2/66 140/112/135
f 69/2/66 33/1/31 32/11/30
f 69/2/66 32/11/30 140/112/135
f 68/57/65 67/23/64 74/43/71
f 68/57/65 74/43/71 141/116/136
f 74/43/71 73/42/70 82/66/79
f 74/43/71 82/66/79 141/116/136
f 79/63/76 78/40/75 85/37/82
f 79/63/76 85/37/82 142/117/136
f 85/37/82 65/21/62 64/20/61
f 85/37/82 64/20/61 142/117/136
f 84/68/81 83/67/80 89/72/86
f 84/68/81 89/72/86 143/118/137
f 89/72/86 53/49/50 52/48/49
f 89/72/86 52/48/49 143/118/137
f 56/52/53 55/51/52 93/76/90
f 56/52/53 93/76/90 144/119/137
f 93/76/90 81/65/78 80/64/77
f 93/76/90 80/64/77 144/119/137
f 48/44/45 50/46/47 98/80/95
f 48/44/45 98/80/95 145/120/138
f 98/80/95 97/79/94 101/83/98
f 98/80/95 101/83/98 145/120/138
f 101/83/98 49/45/46 48/44/45
f 101/83/98 48/44/45 145/120/138
f 102/84/99 103/85/100 104/86/101
f 102/84/99 104/86/101 146/121/139
f 104/86/101 95/78/92 94/77/91
f 104/86/101 94/77/91 146/121/139
f 94/77/91 96/75/93 102/84/99
f 94/77/91 102/84/99 146/121/139
f 16/16/15 18/18/17 107/89/104
f 16/16/15 107/89/104 147/122/140
f 107/89/104 100/82/97 99/81/96
f 107/89/104 99/81/96 147/122/140
f 99/81/96 17/17/16 16/16/15
f 99/81/96 16/16/15 147/122/140
f 38/35/35 40/36/37 110/92/107
f 38/35/35 110/92/107 148/123/141
f 110/92/107 109/91/106 108/90/105
f 110/92/107 108/90/105 148/123/141
f 108/90/105 39/28/36 38/35/35
f 108/90/105 38/35/35 148/123/141
f 70/58/67 72/59/69 113/95/110
f 70/58/67 113/95/110 149/124/142
f 113/95/110 112/94/109 111/93/108
f 113/95/110 111/93/108 149/124/142
f 111/93/108 71/4/68 70/58/67
f 111/93/108 70/58/67 149/124/142
f 86/69/83 88/71/85 105/87/102
f 86/69/83 105/87/102 150/125/143
f 105/87/102 106/88/103 114/96/111
f 105/87/102 114/96/111 150/125/143
f 114/96/111 87/70/84 86/69/83
f 114/96/111 86/69/83 150/125/143
f 119/87/116 117/98/114 115/97/112
f 119/87/116 115/97/112 151/126/144
f 115/97/112 43/39/40 42/38/39
f 115/97/112 42/38/39 151/126/144
f 42/38/39 45/41/42 119/87/116
f 42/38/39 119/87/116 151/126/144
f 90/73/87 92/75/89 122/102/119
f 90/73/87 122/102/119 152/127/145
f 122/102/119 121/101/118 120/100/117
f 122/102/119 120/100/117 152/127/145
f 120/100/117 91/74/88 90/73/87
f 120/100/117 90/73/87 152/127/145
f 116/95/113 118/99/115 125/105/122
f 116/95/113 125/105/122 153/128/146
f 125/105/122 4/4/4 3/3/3
f 125/105/122 3/3/3 153/128/146
f 3/3/3 6/6/6 116/95/113
f 3/3/3 116/95/113 153/128/146
f 126/106/123 127/107/124 128/90/125
f 126/106/123 128/90/125 154/123/147
f 128/90/125 28/28/26 27/27/25
f 128/90/125 27/27/25 154/123/147
f 27/27/25 29/29/27 126/106/123
f 27/27/25 126/106/123 154/123/147
f 129/108/126 130/109/127 131/110/128
f 129/108/126 131/110/128 155/129/148
f 131/110/128 60/54/57 59/16/56
f 131/110/128 59/16/56 155/129/148
f 59/16/56 61/55/58 129/108/126
f 59/16/56 129/108/126 155/129/148
f 132/111/129 124/104/121 123/103/120
f 132/111/129 123/103/120 156/130/149
f 123/103/120 76/61/73 75/60/72
f 123/103/120 75/60/72 156/130/149
f 75/60/72 77/62/74 132/111/129
f 75/60/72 132/111/129 156/130/149
f 103/85/100 97/79/94 100/82/97
f 103/85/100 100/82/97 109/91/106
f 121/101/118 124/104/121 130/109/127
f 121/101/118 130/109/127 127/107/124
