# Blender 4.3.0
# www.blender.org
mtllib Rupia.002.mtl
o Rupia.002
v -0.257222 -0.325392 0.062962
v -0.257819 -0.324458 0.065493
v -0.224307 -0.316759 0.070200
v -0.223599 -0.317733 0.067560
v -0.257459 -0.324142 0.068377
v -0.224036 -0.316457 0.073032
v -0.260387 -0.329763 0.063815
v -0.259693 -0.327019 0.063003
v -0.232535 -0.357329 0.006906
v -0.233753 -0.359557 0.008626
v -0.259693 -0.327019 0.063003
v -0.230580 -0.355136 0.007774
v -0.232535 -0.357329 0.006906
v -0.260649 -0.328586 0.069233
v -0.260995 -0.328867 0.066337
v -0.256012 -0.360826 0.078780
v -0.255671 -0.360402 0.081632
v -0.255342 -0.361950 0.076082
v -0.259951 -0.325799 0.068406
v -0.233091 -0.326886 0.162818
v -0.230947 -0.325213 0.161575
v -0.259951 -0.325799 0.068406
v -0.234143 -0.329675 0.162407
v -0.233091 -0.326886 0.162818
v -0.226338 -0.358421 0.006529
v -0.228747 -0.356767 0.006139
v -0.205836 -0.337212 0.032919
v -0.203444 -0.338787 0.033299
v -0.207654 -0.335661 0.034511
v -0.229511 -0.362842 0.007381
v -0.228288 -0.360620 0.005661
v -0.175869 -0.391941 0.038406
v -0.177993 -0.393590 0.039640
v -0.228288 -0.360620 0.005661
v -0.174836 -0.389194 0.038793
v -0.175869 -0.391941 0.038406
v -0.231920 -0.361188 0.006991
v -0.237500 -0.381449 0.041458
v -0.239250 -0.379893 0.043013
v -0.235203 -0.383027 0.041826
v -0.229738 -0.325592 0.164209
v -0.203790 -0.317566 0.142620
v -0.205102 -0.317265 0.140134
v -0.227903 -0.326576 0.166026
v -0.201688 -0.318548 0.144474
v -0.231060 -0.330973 0.166874
v -0.232908 -0.330022 0.165059
v -0.235416 -0.361659 0.151186
v -0.233430 -0.362834 0.153107
v -0.236622 -0.361171 0.148596
v -0.230028 -0.328226 0.167260
v -0.177607 -0.359549 0.200006
v -0.176385 -0.357325 0.198285
v -0.230028 -0.328226 0.167260
v -0.179558 -0.361745 0.199137
v -0.177607 -0.359549 0.200006
v -0.171759 -0.390510 0.043236
v -0.172986 -0.390155 0.040606
v -0.170436 -0.358486 0.054544
v -0.169274 -0.358995 0.057070
v -0.172381 -0.357285 0.052648
v -0.174960 -0.394959 0.044121
v -0.172808 -0.393284 0.042849
v -0.145947 -0.394371 0.137261
v -0.148437 -0.396024 0.137290
v -0.172808 -0.393284 0.042849
v -0.145247 -0.391581 0.136433
v -0.145947 -0.394371 0.137261
v -0.176169 -0.394575 0.041462
v -0.202112 -0.402567 0.062968
v -0.204208 -0.401549 0.061081
v -0.200794 -0.402901 0.065533
v -0.145518 -0.390377 0.141857
v -0.144904 -0.391289 0.139322
v -0.149887 -0.359247 0.126960
v -0.150555 -0.358217 0.129585
v -0.150203 -0.359612 0.124136
v -0.148648 -0.394776 0.142695
v -0.146199 -0.393142 0.142663
v -0.173358 -0.362838 0.198759
v -0.175316 -0.365030 0.197893
v -0.146199 -0.393142 0.142663
v -0.172143 -0.360610 0.197041
v -0.173358 -0.362838 0.198759
v -0.148065 -0.395706 0.140179
v -0.181514 -0.403399 0.135378
v -0.181744 -0.403670 0.132497
v -0.182297 -0.402433 0.138106
v -0.173976 -0.358978 0.198676
v -0.168398 -0.338717 0.164211
v -0.170693 -0.337139 0.163841
v -0.166646 -0.340273 0.162654
v -0.177150 -0.363399 0.199528
v -0.200169 -0.382872 0.172779
v -0.198405 -0.384513 0.171180
v -0.202484 -0.381220 0.172400
v -0.233976 -0.366043 0.148461
v -0.235935 -0.364000 0.147842
v -0.254732 -0.363219 0.081839
v -0.253427 -0.365228 0.080240
v -0.233551 -0.365198 0.151163
v -0.203418 -0.382930 0.170264
v -0.202888 -0.384628 0.167832
v -0.200481 -0.385269 0.169384
v -0.185089 -0.402717 0.136961
v -0.186714 -0.402640 0.134621
v -0.254461 -0.364329 0.077741
v -0.238931 -0.381585 0.045281
v -0.237253 -0.383241 0.047028
v -0.236027 -0.383834 0.044430
v -0.206007 -0.401859 0.063541
v -0.206164 -0.401825 0.066399
v -0.203506 -0.402894 0.066830
v -0.184702 -0.403664 0.132832
v -0.202390 -0.317273 0.138836
v -0.221139 -0.316499 0.072739
v -0.199732 -0.318341 0.139268
v -0.219182 -0.317526 0.071046
v -0.199902 -0.318275 0.142056
v -0.169869 -0.336332 0.161236
v -0.168643 -0.336926 0.158638
v -0.166965 -0.338581 0.160386
v -0.151435 -0.355837 0.127925
v -0.152469 -0.354938 0.125427
v -0.220807 -0.317449 0.068707
v -0.205514 -0.334886 0.036292
v -0.203008 -0.335538 0.037835
v -0.202510 -0.337146 0.035432
v -0.172298 -0.354954 0.054565
v -0.171920 -0.354123 0.057205
v -0.169961 -0.356167 0.057825
v -0.151163 -0.356872 0.123909
v -0.260299 -0.326101 0.065523
v -0.260299 -0.326101 0.065523
v -0.230700 -0.358963 0.005270
v -0.230700 -0.358963 0.005270
v -0.231869 -0.327255 0.165452
v -0.231869 -0.327255 0.165452
v -0.174029 -0.392914 0.040215
v -0.174029 -0.392914 0.040215
v -0.145596 -0.394064 0.140143
v -0.145596 -0.394064 0.140143
v -0.175194 -0.361205 0.200396
v -0.175194 -0.361205 0.200396
v -0.235199 -0.363830 0.150060
v -0.201424 -0.383871 0.171083
v -0.255265 -0.362999 0.079570
v -0.237681 -0.382468 0.043529
v -0.203992 -0.402714 0.064542
v -0.183915 -0.403531 0.135033
v -0.201916 -0.317432 0.141066
v -0.168216 -0.337698 0.162139
v -0.221934 -0.316638 0.070562
v -0.204562 -0.336227 0.034609
v -0.170665 -0.356327 0.055657
v -0.150636 -0.357107 0.126161
vn -0.1628 0.8381 -0.5206
vn -0.2175 0.9449 -0.2446
vn -0.1777 0.9581 -0.2247
vn -0.1122 0.8544 -0.5073
vn -0.2778 0.9571 0.0821
vn -0.2209 0.9728 0.0704
vn -0.9227 -0.2203 -0.3162
vn -0.7208 0.4105 -0.5586
vn -0.7090 0.3982 -0.5820
vn -0.9111 -0.2276 -0.3437
vn -0.7207 0.4106 -0.5586
vn -0.1572 0.8229 -0.5460
vn -0.9639 0.0016 0.2664
vn -0.9908 -0.1314 -0.0336
vn -0.9860 -0.1667 -0.0043
vn -0.9613 -0.0585 0.2692
vn -0.9184 -0.2685 -0.2907
vn -0.7726 0.5958 0.2193
vn -0.7684 0.5961 0.2328
vn -0.2739 0.9569 0.0965
vn -0.7727 0.5957 0.2194
vn -0.9597 0.0015 0.2809
vn 0.5949 0.2411 -0.7668
vn 0.2586 0.6226 -0.7386
vn 0.2851 0.6451 -0.7089
vn 0.6179 0.2875 -0.7318
vn -0.1062 0.8479 -0.5194
vn -0.1589 -0.8102 -0.5643
vn 0.2949 -0.3806 -0.8765
vn 0.3168 -0.3938 -0.8629
vn -0.1404 -0.8261 -0.5457
vn 0.6196 0.2326 -0.7497
vn 0.3169 -0.3937 -0.8629
vn -0.6163 -0.6047 -0.5045
vn -0.6232 -0.6285 -0.4654
vn -0.9124 -0.2753 -0.3029
vn -0.1884 -0.8361 -0.5152
vn -0.0542 0.9395 0.3383
vn -0.0302 0.9532 0.3007
vn -0.2191 0.9726 0.0770
vn 0.1404 0.8262 0.5456
vn 0.1768 0.8430 0.5080
vn -0.6195 -0.2324 0.7498
vn -0.8256 -0.1380 0.5472
vn -0.8371 -0.1730 0.5189
vn -0.6296 -0.2802 0.7246
vn -0.9594 -0.0586 0.2759
vn -0.3168 0.3938 0.8629
vn -0.2948 0.3806 0.8765
vn 0.1588 0.8102 0.5643
vn -0.3168 0.3937 0.8629
vn -0.5953 -0.2400 0.7668
vn 0.9598 -0.0015 -0.2806
vn 0.8268 0.1367 -0.5457
vn 0.8381 0.1722 -0.5176
vn 0.9594 0.0586 -0.2758
vn 0.6297 0.2804 -0.7245
vn 0.2739 -0.9569 -0.0968
vn 0.7680 -0.5966 -0.2327
vn 0.7715 -0.5973 -0.2191
vn 0.2779 -0.9571 -0.0822
vn 0.7681 -0.5966 -0.2328
vn 0.9639 -0.0014 -0.2663
vn 0.0523 -0.9391 -0.3396
vn 0.0289 -0.9529 -0.3020
vn -0.1768 -0.8430 -0.5081
vn 0.2191 -0.9726 -0.0771
vn 0.9226 0.2204 0.3166
vn 0.9906 0.1320 0.0370
vn 0.9858 0.1677 0.0078
vn 0.9183 0.2686 0.2909
vn 0.9613 0.0586 -0.2691
vn 0.1628 -0.8383 0.5203
vn 0.7214 -0.4096 0.5584
vn 0.7103 -0.3964 0.5816
vn 0.1563 -0.8228 0.5464
vn 0.7215 -0.4095 0.5583
vn 0.9111 0.2277 0.3435
vn 0.2174 -0.9458 0.2412
vn 0.1780 -0.9588 0.2213
vn 0.2210 -0.9727 -0.0704
vn 0.1121 -0.8546 0.5071
vn 0.6163 0.6047 0.5045
vn 0.6232 0.6285 0.4654
vn 0.1884 0.8361 0.5152
vn 0.9124 0.2753 0.3029
vn -0.2667 -0.6163 0.7409
vn -0.2929 -0.6391 0.7112
vn 0.1058 -0.8479 0.5195
vn -0.6181 -0.2871 0.7318
vn -0.5828 -0.7968 0.1597
vn -0.8453 -0.4787 0.2373
vn -0.8463 -0.4789 0.2331
vn -0.5843 -0.7968 0.1541
vn -0.6536 -0.5949 0.4679
vn -0.6460 -0.5756 0.5014
vn -0.5733 -0.8026 0.1650
vn -0.2362 -0.8943 0.3800
vn -0.2644 -0.8981 0.3513
vn -0.5680 -0.8083 0.1553
vn -0.8043 -0.5907 -0.0644
vn -0.8159 -0.5700 -0.0971
vn -0.5790 -0.8024 0.1445
vn -0.4062 -0.8879 -0.2160
vn -0.4158 -0.8920 -0.1772
vn -0.5695 -0.8082 0.1498
vn -0.2009 -0.9786 0.0436
vn -0.2000 -0.9786 0.0478
vn 0.2064 0.9774 -0.0451
vn 0.2046 0.9776 -0.0490
vn 0.5698 0.8080 -0.1499
vn 0.5680 0.8082 -0.1554
vn 0.4173 0.8918 0.1748
vn 0.4082 0.8876 0.2133
vn 0.5791 0.8023 -0.1447
vn 0.8158 0.5701 0.0971
vn 0.8040 0.5911 0.0648
vn 0.5841 0.7969 -0.1540
vn 0.2611 0.8980 -0.3542
vn 0.2325 0.8947 -0.3814
vn 0.5730 0.8028 -0.1648
vn 0.6450 0.5809 -0.4964
vn 0.6533 0.5996 -0.4622
vn 0.5825 0.7970 -0.1594
vn 0.8426 0.4838 -0.2365
vn 0.8441 0.4832 -0.2326
vn -0.8144 0.5537 -0.1735
vn -0.8145 0.5536 -0.1735
vn -0.2735 0.0109 -0.9618
vn -0.5998 0.5419 0.5887
vn -0.5999 0.5419 0.5887
vn 0.5978 -0.5447 -0.5882
vn 0.5978 -0.5447 -0.5881
vn 0.8167 -0.5505 0.1729
vn 0.8167 -0.5506 0.1729
vn 0.2738 -0.0112 0.9617
vn 0.2738 -0.0111 0.9617
vn -0.8004 -0.4411 0.4059
vn -0.4054 -0.7178 0.5661
vn -0.8989 -0.4332 0.0657
vn -0.6377 -0.7173 -0.2805
vn -0.2111 -0.9682 -0.1344
vn -0.1102 -0.9725 0.2052
vn 0.2103 0.9693 0.1273
vn 0.6377 0.7173 0.2807
vn 0.1183 0.9697 -0.2139
vn 0.3869 0.7320 -0.5608
vn 0.8031 0.4422 -0.3994
vn 0.8952 0.4419 -0.0581
vt 0.531809 0.976179
vt 0.548949 0.971940
vt 0.498837 0.783389
vt 0.483546 0.786203
vt 0.565214 0.962853
vt 0.511825 0.775572
vt 0.026757 0.502468
vt 0.010291 0.501598
vt 0.076280 0.924564
vt 0.090886 0.915047
vt 0.533782 0.992592
vt 0.116016 0.938616
vt 0.107452 0.953790
vt 0.037894 0.468365
vt 0.029892 0.485138
vt 0.221378 0.522701
vt 0.228148 0.509238
vt 0.219734 0.538341
vt 0.573223 0.977796
vt 0.976468 0.548127
vt 0.961190 0.541112
vt 0.022613 0.461358
vt 0.433527 0.046277
vt 0.425509 0.031337
vt 0.090886 0.915047
vt 0.100316 0.930176
vt 0.250028 0.770839
vt 0.242480 0.757300
vt 0.263914 0.777639
vt 0.116016 0.938616
vt 0.107452 0.953790
vt 0.026757 0.502468
vt 0.010291 0.501598
vt 0.100316 0.930175
vt 0.250028 0.770839
vt 0.263914 0.777639
vt 0.969191 0.524327
vt 0.777753 0.486782
vt 0.770979 0.500246
vt 0.972324 0.506984
vt 0.779398 0.471139
vt 0.466958 0.032953
vt 0.449804 0.037190
vt 0.499892 0.225694
vt 0.515188 0.222879
vt 0.486904 0.233515
vt 0.988791 0.507851
vt 0.922621 0.084742
vt 0.908018 0.094263
vt 0.464987 0.016539
vt 0.882890 0.070695
vt 0.891459 0.055523
vt 0.037894 0.468365
vt 0.228149 0.509238
vt 0.219734 0.538340
vt 0.022613 0.461358
vt 0.425509 0.031337
vt 0.498837 0.783389
vt 0.511825 0.775572
vt 0.499892 0.225694
vt 0.515188 0.222880
vt 0.486904 0.233515
vt 0.988791 0.507851
vt 0.922621 0.084742
vt 0.908018 0.094263
vt 0.464987 0.016539
vt 0.882890 0.070695
vt 0.891459 0.055524
vt 0.777753 0.486782
vt 0.770979 0.500246
vt 0.779398 0.471139
vt 0.898589 0.079135
vt 0.748881 0.238472
vt 0.756434 0.252015
vt 0.734991 0.231666
vt 0.898589 0.079135
vt 0.748881 0.238472
vt 0.756434 0.252015
vt 0.509515 0.252453
vt 0.495662 0.246890
vt 0.242169 0.517277
vt 0.248655 0.531037
vt 0.515888 0.239025
vt 0.728801 0.245437
vt 0.728127 0.260852
vt 0.743243 0.259110
vt 0.763372 0.471400
vt 0.750513 0.478470
vt 0.235775 0.538091
vt 0.255670 0.750206
vt 0.270778 0.748459
vt 0.270102 0.763867
vt 0.482834 0.770042
vt 0.489192 0.756592
vt 0.503061 0.762180
vt 0.756975 0.492212
vt 0.756975 0.492212
vt 0.750512 0.478470
vt 0.489192 0.756592
vt 0.743243 0.259110
vt 0.728127 0.260852
vt 0.728801 0.245437
vt 0.515888 0.239025
vt 0.509515 0.252453
vt 0.482834 0.770042
vt 0.270102 0.763867
vt 0.270778 0.748459
vt 0.235775 0.538091
vt 0.248655 0.531037
vt 0.242169 0.517277
vt 0.495662 0.246890
vt 0.553496 0.987350
vt 0.014285 0.481605
vt 0.089206 0.942015
vt 0.984797 0.527859
vt 0.445257 0.021781
vt 0.984797 0.527859
vt 0.909699 0.067295
vt 0.909699 0.067296
vt 0.503673 0.237853
vt 0.740820 0.247118
vt 0.233766 0.525798
vt 0.258087 0.762193
vt 0.495050 0.771217
vt 0.765378 0.483692
vt 0.765378 0.483692
vt 0.740820 0.247118
vt 0.495050 0.771217
vt 0.233766 0.525798
vt 0.503673 0.237853
s 1
usemtl Rupee_aiSS.002
f 1/1/1 2/2/2 3/3/3
f 1/1/1 3/3/3 4/4/4
f 2/2/2 5/5/5 6/6/6
f 2/2/2 6/6/6 3/3/3
f 7/7/7 8/8/8 9/9/9
f 7/7/7 9/9/9 10/10/10
f 11/11/11 1/1/1 12/12/12
f 11/11/11 12/12/12 13/13/9
f 14/14/13 15/15/14 16/16/15
f 14/14/13 16/16/15 17/17/16
f 15/15/14 7/7/7 18/18/17
f 15/15/14 18/18/17 16/16/15
f 5/5/5 19/19/18 20/20/19
f 5/5/5 20/20/19 21/21/20
f 22/22/21 14/14/13 23/23/22
f 22/22/21 23/23/22 24/24/19
f 25/25/23 26/26/24 27/27/25
f 25/25/23 27/27/25 28/28/26
f 26/26/24 12/12/12 29/29/27
f 26/26/24 29/29/27 27/27/25
f 30/30/28 31/31/29 32/11/30
f 30/30/28 32/11/30 33/1/31
f 34/9/29 25/25/23 35/32/32
f 34/9/29 35/32/32 36/33/33
f 10/10/10 37/34/34 38/35/35
f 10/10/10 38/35/35 39/28/36
f 37/34/34 30/30/28 40/36/37
f 37/34/34 40/36/37 38/35/35
f 21/21/20 41/37/38 42/38/39
f 21/21/20 42/38/39 43/39/40
f 41/37/38 44/40/41 45/41/42
f 41/37/38 45/41/42 42/38/39
f 46/42/43 47/43/44 48/44/45
f 46/42/43 48/44/45 49/45/46
f 47/43/44 23/23/22 50/46/47
f 47/43/44 50/46/47 48/44/45
f 44/40/41 51/47/48 52/48/49
f 44/40/41 52/48/49 53/49/50
f 54/50/51 46/42/43 55/51/52
f 54/50/51 55/51/52 56/52/49
f 57/53/53 58/15/54 59/16/55
f 57/53/53 59/16/55 60/54/56
f 58/15/54 35/32/32 61/55/57
f 58/15/54 61/55/57 59/16/55
f 62/5/58 63/19/59 64/20/60
f 62/5/58 64/20/60 65/21/61
f 66/56/62 57/53/53 67/23/63
f 66/56/62 67/23/63 68/57/60
f 33/1/31 69/2/64 70/58/65
f 33/1/31 70/58/65 71/4/66
f 69/2/64 62/5/58 72/59/67
f 69/2/64 72/59/67 70/58/65
f 73/42/68 74/43/69 75/60/70
f 73/42/68 75/60/70 76/61/71
f 74/43/69 67/23/63 77/62/72
f 74/43/69 77/62/72 75/60/70
f 78/40/73 79/63/74 80/64/75
f 78/40/73 80/64/75 81/65/76
f 82/66/77 73/42/68 83/67/78
f 82/66/77 83/67/78 84/68/75
f 65/21/61 85/37/79 86/69/80
f 65/21/61 86/69/80 87/70/81
f 85/37/79 78/40/73 88/71/82
f 85/37/79 88/71/82 86/69/80
f 53/49/50 89/72/83 90/73/84
f 53/49/50 90/73/84 91/74/85
f 89/72/83 83/67/78 92/75/86
f 89/72/83 92/75/86 90/73/84
f 81/65/76 93/76/87 94/77/88
f 81/65/76 94/77/88 95/78/89
f 93/76/87 55/51/52 96/75/90
f 93/76/87 96/75/90 94/77/88
f 97/79/91 98/80/92 99/81/93
f 97/79/91 99/81/93 100/82/94
f 98/80/92 50/46/47 17/17/16
f 98/80/92 17/17/16 99/81/93
f 49/45/46 101/83/95 102/84/96
f 49/45/46 102/84/96 96/75/90
f 101/83/95 97/79/91 103/85/97
f 101/83/95 103/85/97 102/84/96
f 95/78/89 104/86/98 105/87/99
f 95/78/89 105/87/99 88/71/82
f 104/86/98 103/85/97 106/88/100
f 104/86/98 106/88/100 105/87/99
f 100/82/94 107/89/101 108/90/102
f 100/82/94 108/90/102 109/91/103
f 107/89/101 18/18/17 39/28/36
f 107/89/101 39/28/36 108/90/102
f 109/91/103 110/92/104 111/93/105
f 109/91/103 111/93/105 112/94/106
f 110/92/104 40/36/37 71/4/66
f 110/92/104 71/4/66 111/93/105
f 112/94/106 113/95/107 114/96/108
f 112/94/106 114/96/108 106/88/100
f 113/95/107 72/59/67 87/70/81
f 113/95/107 87/70/81 114/96/108
f 43/39/40 115/97/109 116/95/110
f 43/39/40 116/95/110 6/6/6
f 115/97/109 117/98/111 118/99/112
f 115/97/109 118/99/112 116/95/110
f 117/98/111 119/87/113 120/100/114
f 117/98/111 120/100/114 121/101/115
f 119/87/113 45/41/42 91/74/85
f 119/87/113 91/74/85 120/100/114
f 121/101/115 122/102/116 123/103/117
f 121/101/115 123/103/117 124/104/118
f 122/102/116 92/75/86 76/61/71
f 122/102/116 76/61/71 123/103/117
f 4/4/4 125/105/119 126/106/120
f 4/4/4 126/106/120 29/29/27
f 125/105/119 118/99/112 127/107/121
f 125/105/119 127/107/121 126/106/120
f 28/28/26 128/90/122 129/108/123
f 28/28/26 129/108/123 61/55/57
f 128/90/122 127/107/121 130/109/124
f 128/90/122 130/109/124 129/108/123
f 60/54/56 131/110/125 132/111/126
f 60/54/56 132/111/126 77/62/72
f 131/110/125 130/109/124 124/104/118
f 131/110/125 124/104/118 132/111/126
f 103/85/97 109/91/103 112/94/106
f 103/85/97 112/94/106 106/88/100
f 55/51/52 46/42/43 49/45/46
f 55/51/52 49/45/46 96/75/90
f 23/23/22 14/14/13 17/17/16
f 23/23/22 17/17/16 50/46/47
f 7/7/7 10/10/10 39/28/36
f 7/7/7 39/28/36 18/18/17
f 30/30/28 33/1/31 71/4/66
f 30/30/28 71/4/66 40/36/37
f 62/5/58 65/21/61 87/70/81
f 62/5/58 87/70/81 72/59/67
f 78/40/73 81/65/76 95/78/89
f 78/40/73 95/78/89 88/71/82
f 121/101/115 127/107/121 118/99/112
f 121/101/115 118/99/112 117/98/111
f 53/49/50 91/74/85 45/41/42
f 53/49/50 45/41/42 44/40/41
f 21/21/20 43/39/40 6/6/6
f 21/21/20 6/6/6 5/5/5
f 1/1/1 4/4/4 29/29/27
f 1/1/1 29/29/27 12/12/12
f 25/25/23 28/28/26 61/55/57
f 25/25/23 61/55/57 35/32/32
f 57/53/53 60/54/56 77/62/72
f 57/53/53 77/62/72 67/23/63
f 73/42/68 76/61/71 92/75/86
f 73/42/68 92/75/86 83/67/78
f 19/19/18 5/5/5 2/2/2
f 19/19/18 2/2/2 133/112/127
f 2/2/2 1/1/1 11/11/11
f 2/2/2 11/11/11 133/112/127
f 8/8/8 7/7/7 15/15/14
f 8/8/8 15/15/14 134/113/128
f 15/15/14 14/14/13 22/22/21
f 15/15/14 22/22/21 134/113/128
f 13/13/9 12/12/12 26/26/24
f 13/13/9 26/26/24 135/114/129
f 26/26/24 25/25/23 34/9/29
f 26/26/24 34/9/29 135/114/129
f 31/31/29 30/30/28 37/34/34
f 31/31/29 37/34/34 136/114/129
f 37/34/34 10/10/10 9/9/9
f 37/34/34 9/9/9 136/114/129
f 51/47/48 44/40/41 41/37/38
f 51/47/48 41/37/38 137/115/130
f 41/37/38 21/21/20 20/20/19
f 41/37/38 20/20/19 137/115/130
f 24/24/19 23/23/22 47/43/44
f 24/24/19 47/43/44 138/116/131
f 47/43/44 46/42/43 54/50/51
f 47/43/44 54/50/51 138/116/131
f 36/33/33 35/32/32 58/15/54
f 36/33/33 58/15/54 139/113/132
f 58/15/54 57/53/53 66/56/62
f 58/15/54 66/56/62 139/113/132
f 63/19/59 62/5/58 69/2/64
f 63/19/59 69/2/64 140/112/133
f 69/2/64 33/1/31 32/11/30
f 69/2/64 32/11/30 140/112/133
f 68/57/60 67/23/63 74/43/69
f 68/57/60 74/43/69 141/116/134
f 74/43/69 73/42/68 82/66/77
f 74/43/69 82/66/77 141/116/134
f 79/63/74 78/40/73 85/37/79
f 79/63/74 85/37/79 142/117/135
f 85/37/79 65/21/61 64/20/60
f 85/37/79 64/20/60 142/117/135
f 84/68/75 83/67/78 89/72/83
f 84/68/75 89/72/83 143/118/136
f 89/72/83 53/49/50 52/48/49
f 89/72/83 52/48/49 143/118/136
f 56/52/49 55/51/52 93/76/87
f 56/52/49 93/76/87 144/119/137
f 93/76/87 81/65/76 80/64/75
f 93/76/87 80/64/75 144/119/137
f 48/44/45 50/46/47 98/80/92
f 48/44/45 98/80/92 145/120/138
f 98/80/92 97/79/91 101/83/95
f 98/80/92 101/83/95 145/120/138
f 101/83/95 49/45/46 48/44/45
f 101/83/95 48/44/45 145/120/138
f 102/84/96 103/85/97 104/86/98
f 102/84/96 104/86/98 146/121/139
f 104/86/98 95/78/89 94/77/88
f 104/86/98 94/77/88 146/121/139
f 94/77/88 96/75/90 102/84/96
f 94/77/88 102/84/96 146/121/139
f 16/16/15 18/18/17 107/89/101
f 16/16/15 107/89/101 147/122/140
f 107/89/101 100/82/94 99/81/93
f 107/89/101 99/81/93 147/122/140
f 99/81/93 17/17/16 16/16/15
f 99/81/93 16/16/15 147/122/140
f 38/35/35 40/36/37 110/92/104
f 38/35/35 110/92/104 148/123/141
f 110/92/104 109/91/103 108/90/102
f 110/92/104 108/90/102 148/123/141
f 108/90/102 39/28/36 38/35/35
f 108/90/102 38/35/35 148/123/141
f 70/58/65 72/59/67 113/95/107
f 70/58/65 113/95/107 149/124/142
f 113/95/107 112/94/106 111/93/105
f 113/95/107 111/93/105 149/124/142
f 111/93/105 71/4/66 70/58/65
f 111/93/105 70/58/65 149/124/142
f 86/69/80 88/71/82 105/87/99
f 86/69/80 105/87/99 150/125/143
f 105/87/99 106/88/100 114/96/108
f 105/87/99 114/96/108 150/125/143
f 114/96/108 87/70/81 86/69/80
f 114/96/108 86/69/80 150/125/143
f 119/87/113 117/98/111 115/97/109
f 119/87/113 115/97/109 151/126/144
f 115/97/109 43/39/40 42/38/39
f 115/97/109 42/38/39 151/126/144
f 42/38/39 45/41/42 119/87/113
f 42/38/39 119/87/113 151/126/144
f 90/73/84 92/75/86 122/102/116
f 90/73/84 122/102/116 152/127/145
f 122/102/116 121/101/115 120/100/114
f 122/102/116 120/100/114 152/127/145
f 120/100/114 91/74/85 90/73/84
f 120/100/114 90/73/84 152/127/145
f 116/95/110 118/99/112 125/105/119
f 116/95/110 125/105/119 153/128/146
f 125/105/119 4/4/4 3/3/3
f 125/105/119 3/3/3 153/128/146
f 3/3/3 6/6/6 116/95/110
f 3/3/3 116/95/110 153/128/146
f 126/106/120 127/107/121 128/90/122
f 126/106/120 128/90/122 154/123/147
f 128/90/122 28/28/26 27/27/25
f 128/90/122 27/27/25 154/123/147
f 27/27/25 29/29/27 126/106/120
f 27/27/25 126/106/120 154/123/147
f 129/108/123 130/109/124 131/110/125
f 129/108/123 131/110/125 155/129/148
f 131/110/125 60/54/56 59/16/55
f 131/110/125 59/16/55 155/129/148
f 59/16/55 61/55/57 129/108/123
f 59/16/55 129/108/123 155/129/148
f 132/111/126 124/104/118 123/103/117
f 132/111/126 123/103/117 156/130/149
f 123/103/117 76/61/71 75/60/70
f 123/103/117 75/60/70 156/130/149
f 75/60/70 77/62/72 132/111/126
f 75/60/70 132/111/126 156/130/149
f 103/85/97 97/79/91 100/82/94
f 103/85/97 100/82/94 109/91/103
f 121/101/115 124/104/118 130/109/124
f 121/101/115 130/109/124 127/107/121
