# Blender 4.3.0
# www.blender.org
mtllib Rupia.005.mtl
o Rupia.005
v -0.179459 -0.328333 0.041716
v -0.180777 -0.330748 0.041460
v -0.159237 -0.344612 0.064877
v -0.157795 -0.342114 0.065191
v -0.181006 -0.333646 0.041154
v -0.159523 -0.347436 0.064523
v -0.179471 -0.327736 0.036285
v -0.180461 -0.327528 0.039051
v -0.134451 -0.276025 0.044845
v -0.134288 -0.277050 0.041960
v -0.180461 -0.327528 0.039051
v -0.134299 -0.277656 0.047434
v -0.134451 -0.276025 0.044845
v -0.180995 -0.333037 0.035651
v -0.180774 -0.330135 0.035996
v -0.159196 -0.338632 0.010242
v -0.159501 -0.341510 0.010018
v -0.157688 -0.336047 0.010433
v -0.182005 -0.332821 0.038456
v -0.170702 -0.429742 0.027740
v -0.169852 -0.429321 0.030575
v -0.182005 -0.332821 0.038456
v -0.169832 -0.428684 0.025061
v -0.170702 -0.429742 0.027740
v -0.128828 -0.277028 0.047514
v -0.131684 -0.276302 0.047589
v -0.128140 -0.310442 0.068717
v -0.125342 -0.311165 0.068698
v -0.130689 -0.311747 0.068518
v -0.128817 -0.276421 0.042040
v -0.128972 -0.275397 0.044924
v -0.072344 -0.315094 0.040635
v -0.073191 -0.315515 0.037832
v -0.128972 -0.275397 0.044924
v -0.073202 -0.316118 0.043277
v -0.072344 -0.315094 0.040635
v -0.131673 -0.275696 0.042114
v -0.127960 -0.304408 0.013981
v -0.130454 -0.305695 0.013834
v -0.125235 -0.305095 0.013911
v -0.168964 -0.432087 0.030255
v -0.150653 -0.418939 0.056630
v -0.151593 -0.416278 0.056792
v -0.167124 -0.434136 0.030018
v -0.148606 -0.421089 0.056532
v -0.167114 -0.433533 0.024573
v -0.168944 -0.431478 0.024775
v -0.150531 -0.412961 0.002022
v -0.148470 -0.415119 0.001690
v -0.151487 -0.410254 0.002417
v -0.167972 -0.434557 0.027213
v -0.111341 -0.474256 0.022924
v -0.111499 -0.473230 0.025810
v -0.167972 -0.434557 0.027213
v -0.111488 -0.472624 0.020336
v -0.111341 -0.474256 0.022924
v -0.070474 -0.320940 0.042777
v -0.071363 -0.318171 0.043067
v -0.089770 -0.336765 0.065853
v -0.088829 -0.339398 0.065432
v -0.091817 -0.334645 0.066221
v -0.070473 -0.320355 0.037257
v -0.069614 -0.319909 0.040106
v -0.058311 -0.416830 0.029389
v -0.059310 -0.416005 0.026696
v -0.069614 -0.319909 0.040106
v -0.059321 -0.416615 0.032199
v -0.058311 -0.416830 0.029389
v -0.071361 -0.317566 0.037587
v -0.089679 -0.330640 0.011263
v -0.091739 -0.328466 0.011401
v -0.088723 -0.333373 0.011058
v -0.060868 -0.421921 0.031579
v -0.059549 -0.419509 0.031863
v -0.081185 -0.411103 0.057660
v -0.082628 -0.413604 0.057417
v -0.080899 -0.408266 0.057937
v -0.060834 -0.421315 0.026149
v -0.059855 -0.422124 0.028806
v -0.105863 -0.473625 0.023006
v -0.106017 -0.471995 0.020416
v -0.059855 -0.422124 0.028806
v -0.106028 -0.472601 0.025890
v -0.105863 -0.473625 0.023006
v -0.059531 -0.418912 0.026396
v -0.081013 -0.404974 0.003044
v -0.080709 -0.402117 0.003457
v -0.082521 -0.407537 0.002659
v -0.108642 -0.473956 0.025735
v -0.112358 -0.445245 0.053867
v -0.115081 -0.444557 0.053939
v -0.109861 -0.443957 0.054015
v -0.108632 -0.473349 0.020260
v -0.112316 -0.439224 -0.000871
v -0.109754 -0.437886 -0.000772
v -0.115097 -0.438533 -0.000749
v -0.146467 -0.410065 0.000069
v -0.149171 -0.409288 0.000761
v -0.157100 -0.341529 0.008259
v -0.154685 -0.340024 0.007813
v -0.146938 -0.412882 0.000265
v -0.114580 -0.436008 -0.002058
v -0.112872 -0.433560 -0.002469
v -0.110752 -0.435545 -0.002049
v -0.084443 -0.405712 0.001188
v -0.085515 -0.403082 0.000961
v -0.155760 -0.337507 0.008605
v -0.129451 -0.307700 0.012079
v -0.127329 -0.309546 0.011243
v -0.125706 -0.307271 0.012134
v -0.093264 -0.330335 0.009515
v -0.093733 -0.333041 0.008706
v -0.091032 -0.333952 0.009221
v -0.083103 -0.401713 0.001736
v -0.149284 -0.415699 0.058628
v -0.157161 -0.347861 0.066172
v -0.146582 -0.416610 0.059144
v -0.154801 -0.346569 0.066888
v -0.147073 -0.419250 0.058371
v -0.114610 -0.442380 0.055716
v -0.112987 -0.440105 0.056607
v -0.110865 -0.441951 0.055770
v -0.084556 -0.412144 0.059245
v -0.085631 -0.409627 0.060037
v -0.155873 -0.343940 0.066662
v -0.129651 -0.314092 0.069850
v -0.127444 -0.316091 0.070318
v -0.125819 -0.313677 0.069953
v -0.093356 -0.336842 0.067606
v -0.093849 -0.339586 0.067781
v -0.091144 -0.340364 0.067089
v -0.083268 -0.408211 0.059630
v -0.181775 -0.329929 0.038780
v -0.181775 -0.329929 0.038780
v -0.131833 -0.274670 0.044999
v -0.131833 -0.274670 0.044999
v -0.169810 -0.432513 0.027435
v -0.169810 -0.432513 0.027435
v -0.070506 -0.317138 0.040412
v -0.070506 -0.317138 0.040412
v -0.058541 -0.419723 0.029071
v -0.058541 -0.419723 0.029071
v -0.108481 -0.474981 0.022850
v -0.108481 -0.474981 0.022850
v -0.148938 -0.411619 0.000722
v -0.112527 -0.437145 -0.001911
v -0.157398 -0.339255 0.008731
v -0.127732 -0.306200 0.012533
v -0.091266 -0.331665 0.009694
v -0.082805 -0.404034 0.001700
v -0.149065 -0.417929 0.058181
v -0.112585 -0.443452 0.055316
v -0.157463 -0.345559 0.066192
v -0.127904 -0.312518 0.069759
v -0.091363 -0.338089 0.067140
v -0.082965 -0.410465 0.059145
vn -0.5694 0.4169 0.7085
vn -0.7078 0.1503 0.6903
vn -0.6862 0.1195 0.7175
vn -0.5403 0.3894 0.7459
vn -0.8001 -0.1498 0.5809
vn -0.7628 -0.1548 0.6278
vn -0.5670 0.5618 -0.6024
vn -0.7543 0.6526 0.0714
vn -0.7350 0.6740 0.0743
vn -0.5503 0.5863 -0.5945
vn -0.7544 0.6526 0.0715
vn -0.5530 0.4421 0.7062
vn -0.7350 0.6740 0.0744
vn -0.7979 -0.0188 -0.6025
vn -0.7060 0.2947 -0.6439
vn -0.6846 0.2706 -0.6769
vn -0.7604 -0.0133 -0.6493
vn -0.5377 0.5432 -0.6448
vn -0.9941 -0.1072 -0.0148
vn -0.9925 -0.1212 -0.0156
vn -0.7985 -0.1645 0.5791
vn -0.7962 -0.0337 -0.6041
vn -0.9925 -0.1212 -0.0157
vn 0.4167 0.5536 0.7210
vn -0.0811 0.5537 0.8288
vn -0.0768 0.5154 0.8535
vn 0.4034 0.5077 0.7613
vn -0.5303 0.4004 0.7473
vn 0.4199 0.6977 -0.5804
vn 0.5606 0.8230 0.0923
vn 0.5843 0.8065 0.0905
vn 0.4420 0.6778 -0.5876
vn 0.4395 0.5324 0.7235
vn -0.0730 0.7229 -0.6871
vn -0.0688 0.6906 -0.7199
vn -0.5275 0.5545 -0.6436
vn 0.4063 0.6618 -0.6300
vn -0.6408 -0.4477 0.6237
vn -0.6256 -0.4196 0.6577
vn -0.7621 -0.1616 0.6270
vn -0.4421 -0.6777 0.5877
vn -0.4189 -0.6530 0.6310
vn -0.4395 -0.5326 -0.7233
vn -0.6366 -0.3016 -0.7098
vn -0.6218 -0.2665 -0.7365
vn -0.4162 -0.4990 -0.7601
vn -0.7596 -0.0202 -0.6501
vn -0.5843 -0.8065 -0.0905
vn -0.5605 -0.8230 -0.0922
vn -0.4200 -0.6978 0.5803
vn -0.4176 -0.5537 -0.7204
vn -0.5605 -0.8230 -0.0923
vn 0.7962 0.0334 0.6041
vn 0.6382 0.3000 0.7090
vn 0.6229 0.2652 0.7360
vn 0.7596 0.0201 0.6501
vn 0.4161 0.4988 0.7602
vn 0.7985 0.1648 -0.5790
vn 0.9925 0.1212 0.0150
vn 0.9941 0.1074 0.0128
vn 0.8002 0.1499 -0.5807
vn 0.9925 0.1212 0.0151
vn 0.7978 0.0186 0.6027
vn 0.9941 0.1074 0.0129
vn 0.6392 0.4494 -0.6241
vn 0.6245 0.4210 -0.6578
vn 0.4189 0.6531 -0.6309
vn 0.7621 0.1617 -0.6270
vn 0.5668 -0.5621 0.6023
vn 0.7052 -0.2980 0.6434
vn 0.6835 -0.2740 0.6766
vn 0.5375 -0.5434 0.6448
vn 0.7603 0.0133 0.6494
vn 0.5695 -0.4165 -0.7086
vn 0.7543 -0.6527 -0.0702
vn 0.7350 -0.6742 -0.0721
vn 0.5521 -0.4423 -0.7068
vn 0.7544 -0.6527 -0.0702
vn 0.5502 -0.5862 0.5947
vn 0.7086 -0.1469 -0.6901
vn 0.6873 -0.1162 -0.7170
vn 0.7629 0.1548 -0.6277
vn 0.5404 -0.3891 -0.7460
vn 0.0730 -0.7229 0.6871
vn 0.0688 -0.6906 0.7199
vn -0.4063 -0.6618 0.6300
vn 0.5275 -0.5545 0.6437
vn 0.0707 -0.5549 -0.8289
vn 0.0668 -0.5166 -0.8536
vn 0.5300 -0.4005 -0.7475
vn -0.4037 -0.5077 -0.7611
vn -0.0073 0.1061 -0.9943
vn -0.4143 0.0499 -0.9088
vn -0.4145 0.0542 -0.9084
vn -0.0079 0.1118 -0.9937
vn -0.2188 -0.2013 -0.9548
vn -0.2281 -0.2380 -0.9441
vn 0.0031 0.0996 -0.9950
vn 0.3014 -0.1760 -0.9371
vn 0.2845 -0.1410 -0.9483
vn 0.0118 0.1084 -0.9940
vn -0.2809 0.3453 -0.8955
vn -0.2986 0.3765 -0.8770
vn 0.0007 0.1205 -0.9927
vn 0.2299 0.4361 -0.8700
vn 0.2204 0.4018 -0.8888
vn 0.0111 0.1140 -0.9934
vn 0.4178 0.1500 -0.8961
vn 0.4181 0.1458 -0.8966
vn -0.4126 -0.1498 0.8985
vn -0.4137 -0.1457 0.8987
vn -0.0108 -0.1139 0.9934
vn -0.0117 -0.1083 0.9941
vn -0.2187 -0.3998 0.8901
vn -0.2279 -0.4339 0.8717
vn -0.0006 -0.1203 0.9927
vn 0.2986 -0.3765 0.8770
vn 0.2803 -0.3456 0.8955
vn 0.0077 -0.1119 0.9937
vn -0.2867 0.1446 0.9471
vn -0.3044 0.1781 0.9357
vn -0.0035 -0.0997 0.9950
vn 0.2236 0.2328 0.9465
vn 0.2151 0.1952 0.9569
vn 0.0069 -0.1063 0.9943
vn 0.4091 -0.0507 0.9111
vn 0.4101 -0.0548 0.9104
vn -0.9578 0.2857 0.0318
vn -0.9578 0.2857 0.0317
vn -0.1149 0.9874 0.1091
vn -0.8665 -0.4958 -0.0583
vn -0.8665 -0.4957 -0.0584
vn 0.8665 0.4961 0.0549
vn 0.9578 -0.2861 -0.0279
vn 0.9578 -0.2862 -0.0279
vn 0.1153 -0.9873 -0.1091
vn -0.4201 -0.1282 -0.8984
vn 0.0406 -0.3385 -0.9401
vn -0.4646 0.2209 -0.8575
vn -0.0484 0.5299 -0.8467
vn 0.4237 0.3216 -0.8468
vn 0.4680 -0.0280 -0.8833
vn -0.4242 -0.3148 0.8491
vn 0.0484 -0.5301 0.8466
vn -0.4589 0.0348 0.8878
vn -0.0644 0.3359 0.9397
vn 0.4208 0.1211 0.8990
vn 0.4556 -0.2285 0.8603
vt 0.531809 0.976179
vt 0.548949 0.971940
vt 0.498837 0.783389
vt 0.483546 0.786203
vt 0.565214 0.962853
vt 0.511825 0.775572
vt 0.026757 0.502468
vt 0.010291 0.501598
vt 0.076280 0.924564
vt 0.090886 0.915047
vt 0.533782 0.992592
vt 0.116016 0.938616
vt 0.107452 0.953790
vt 0.037894 0.468365
vt 0.029892 0.485138
vt 0.221378 0.522701
vt 0.228148 0.509238
vt 0.219734 0.538341
vt 0.573223 0.977796
vt 0.976468 0.548127
vt 0.961190 0.541112
vt 0.022613 0.461358
vt 0.433527 0.046277
vt 0.425509 0.031337
vt 0.090886 0.915047
vt 0.100316 0.930176
vt 0.250028 0.770839
vt 0.242480 0.757300
vt 0.263914 0.777639
vt 0.116016 0.938616
vt 0.107452 0.953790
vt 0.026757 0.502468
vt 0.010291 0.501598
vt 0.100316 0.930175
vt 0.250028 0.770839
vt 0.263914 0.777639
vt 0.969191 0.524327
vt 0.777753 0.486782
vt 0.770979 0.500246
vt 0.972324 0.506984
vt 0.779398 0.471139
vt 0.466958 0.032953
vt 0.449804 0.037190
vt 0.499892 0.225694
vt 0.515188 0.222879
vt 0.486904 0.233515
vt 0.988791 0.507851
vt 0.922621 0.084742
vt 0.908018 0.094263
vt 0.464987 0.016539
vt 0.882890 0.070695
vt 0.891459 0.055523
vt 0.037894 0.468365
vt 0.228149 0.509238
vt 0.219734 0.538340
vt 0.022613 0.461358
vt 0.425509 0.031337
vt 0.498837 0.783389
vt 0.511825 0.775572
vt 0.499892 0.225694
vt 0.515188 0.222880
vt 0.486904 0.233515
vt 0.988791 0.507851
vt 0.922621 0.084742
vt 0.908018 0.094263
vt 0.464987 0.016539
vt 0.882890 0.070695
vt 0.891459 0.055524
vt 0.777753 0.486782
vt 0.770979 0.500246
vt 0.779398 0.471139
vt 0.898589 0.079135
vt 0.748881 0.238472
vt 0.756434 0.252015
vt 0.734991 0.231666
vt 0.898589 0.079135
vt 0.748881 0.238472
vt 0.756434 0.252015
vt 0.509515 0.252453
vt 0.495662 0.246890
vt 0.242169 0.517277
vt 0.248655 0.531037
vt 0.515888 0.239025
vt 0.728801 0.245437
vt 0.728127 0.260852
vt 0.743243 0.259110
vt 0.763372 0.471400
vt 0.750513 0.478470
vt 0.235775 0.538091
vt 0.255670 0.750206
vt 0.270778 0.748459
vt 0.270102 0.763867
vt 0.482834 0.770042
vt 0.489192 0.756592
vt 0.503061 0.762180
vt 0.756975 0.492212
vt 0.756975 0.492212
vt 0.750512 0.478470
vt 0.489192 0.756592
vt 0.743243 0.259110
vt 0.728127 0.260852
vt 0.728801 0.245437
vt 0.515888 0.239025
vt 0.509515 0.252453
vt 0.482834 0.770042
vt 0.270102 0.763867
vt 0.270778 0.748459
vt 0.235775 0.538091
vt 0.248655 0.531037
vt 0.242169 0.517277
vt 0.495662 0.246890
vt 0.553496 0.987350
vt 0.014285 0.481605
vt 0.089206 0.942015
vt 0.984797 0.527859
vt 0.445257 0.021781
vt 0.984797 0.527859
vt 0.909699 0.067295
vt 0.909699 0.067296
vt 0.503673 0.237853
vt 0.740820 0.247118
vt 0.233766 0.525798
vt 0.258087 0.762193
vt 0.495050 0.771217
vt 0.765378 0.483692
vt 0.765378 0.483692
vt 0.740820 0.247118
vt 0.495050 0.771217
vt 0.233766 0.525798
vt 0.503673 0.237853
s 1
usemtl Rupee_aiSS.003
f 1/1/1 2/2/2 3/3/3
f 1/1/1 3/3/3 4/4/4
f 2/2/2 5/5/5 6/6/6
f 2/2/2 6/6/6 3/3/3
f 7/7/7 8/8/8 9/9/9
f 7/7/7 9/9/9 10/10/10
f 11/11/11 1/1/1 12/12/12
f 11/11/11 12/12/12 13/13/13
f 14/14/14 15/15/15 16/16/16
f 14/14/14 16/16/16 17/17/17
f 15/15/15 7/7/7 18/18/18
f 15/15/15 18/18/18 16/16/16
f 5/5/5 19/19/19 20/20/20
f 5/5/5 20/20/20 21/21/21
f 22/22/19 14/14/14 23/23/22
f 22/22/19 23/23/22 24/24/23
f 25/25/24 26/26/25 27/27/26
f 25/25/24 27/27/26 28/28/27
f 26/26/25 12/12/12 29/29/28
f 26/26/25 29/29/28 27/27/26
f 30/30/29 31/31/30 32/11/31
f 30/30/29 32/11/31 33/1/32
f 34/9/30 25/25/24 35/32/33
f 34/9/30 35/32/33 36/33/31
f 10/10/10 37/34/34 38/35/35
f 10/10/10 38/35/35 39/28/36
f 37/34/34 30/30/29 40/36/37
f 37/34/34 40/36/37 38/35/35
f 21/21/21 41/37/38 42/38/39
f 21/21/21 42/38/39 43/39/40
f 41/37/38 44/40/41 45/41/42
f 41/37/38 45/41/42 42/38/39
f 46/42/43 47/43/44 48/44/45
f 46/42/43 48/44/45 49/45/46
f 47/43/44 23/23/22 50/46/47
f 47/43/44 50/46/47 48/44/45
f 44/40/41 51/47/48 52/48/49
f 44/40/41 52/48/49 53/49/50
f 54/50/48 46/42/43 55/51/51
f 54/50/48 55/51/51 56/52/52
f 57/53/53 58/15/54 59/16/55
f 57/53/53 59/16/55 60/54/56
f 58/15/54 35/32/33 61/55/57
f 58/15/54 61/55/57 59/16/55
f 62/5/58 63/19/59 64/20/60
f 62/5/58 64/20/60 65/21/61
f 66/56/62 57/53/53 67/23/63
f 66/56/62 67/23/63 68/57/64
f 33/1/32 69/2/65 70/58/66
f 33/1/32 70/58/66 71/4/67
f 69/2/65 62/5/58 72/59/68
f 69/2/65 72/59/68 70/58/66
f 73/42/69 74/43/70 75/60/71
f 73/42/69 75/60/71 76/61/72
f 74/43/70 67/23/63 77/62/73
f 74/43/70 77/62/73 75/60/71
f 78/40/74 79/63/75 80/64/76
f 78/40/74 80/64/76 81/65/77
f 82/66/78 73/42/69 83/67/79
f 82/66/78 83/67/79 84/68/76
f 65/21/61 85/37/80 86/69/81
f 65/21/61 86/69/81 87/70/82
f 85/37/80 78/40/74 88/71/83
f 85/37/80 88/71/83 86/69/81
f 53/49/50 89/72/84 90/73/85
f 53/49/50 90/73/85 91/74/86
f 89/72/84 83/67/79 92/75/87
f 89/72/84 92/75/87 90/73/85
f 81/65/77 93/76/88 94/77/89
f 81/65/77 94/77/89 95/78/90
f 93/76/88 55/51/51 96/75/91
f 93/76/88 96/75/91 94/77/89
f 97/79/92 98/80/93 99/81/94
f 97/79/92 99/81/94 100/82/95
f 98/80/93 50/46/47 17/17/17
f 98/80/93 17/17/17 99/81/94
f 49/45/46 101/83/96 102/84/97
f 49/45/46 102/84/97 96/75/91
f 101/83/96 97/79/92 103/85/98
f 101/83/96 103/85/98 102/84/97
f 95/78/90 104/86/99 105/87/100
f 95/78/90 105/87/100 88/71/83
f 104/86/99 103/85/98 106/88/101
f 104/86/99 106/88/101 105/87/100
f 100/82/95 107/89/102 108/90/103
f 100/82/95 108/90/103 109/91/104
f 107/89/102 18/18/18 39/28/36
f 107/89/102 39/28/36 108/90/103
f 109/91/104 110/92/105 111/93/106
f 109/91/104 111/93/106 112/94/107
f 110/92/105 40/36/37 71/4/67
f 110/92/105 71/4/67 111/93/106
f 112/94/107 113/95/108 114/96/109
f 112/94/107 114/96/109 106/88/101
f 113/95/108 72/59/68 87/70/82
f 113/95/108 87/70/82 114/96/109
f 43/39/40 115/97/110 116/95/111
f 43/39/40 116/95/111 6/6/6
f 115/97/110 117/98/112 118/99/113
f 115/97/110 118/99/113 116/95/111
f 117/98/112 119/87/114 120/100/115
f 117/98/112 120/100/115 121/101/116
f 119/87/114 45/41/42 91/74/86
f 119/87/114 91/74/86 120/100/115
f 121/101/116 122/102/117 123/103/118
f 121/101/116 123/103/118 124/104/119
f 122/102/117 92/75/87 76/61/72
f 122/102/117 76/61/72 123/103/118
f 4/4/4 125/105/120 126/106/121
f 4/4/4 126/106/121 29/29/28
f 125/105/120 118/99/113 127/107/122
f 125/105/120 127/107/122 126/106/121
f 28/28/27 128/90/123 129/108/124
f 28/28/27 129/108/124 61/55/57
f 128/90/123 127/107/122 130/109/125
f 128/90/123 130/109/125 129/108/124
f 60/54/56 131/110/126 132/111/127
f 60/54/56 132/111/127 77/62/73
f 131/110/126 130/109/125 124/104/119
f 131/110/126 124/104/119 132/111/127
f 103/85/98 109/91/104 112/94/107
f 103/85/98 112/94/107 106/88/101
f 55/51/51 46/42/43 49/45/46
f 55/51/51 49/45/46 96/75/91
f 23/23/22 14/14/14 17/17/17
f 23/23/22 17/17/17 50/46/47
f 7/7/7 10/10/10 39/28/36
f 7/7/7 39/28/36 18/18/18
f 30/30/29 33/1/32 71/4/67
f 30/30/29 71/4/67 40/36/37
f 62/5/58 65/21/61 87/70/82
f 62/5/58 87/70/82 72/59/68
f 78/40/74 81/65/77 95/78/90
f 78/40/74 95/78/90 88/71/83
f 121/101/116 127/107/122 118/99/113
f 121/101/116 118/99/113 117/98/112
f 53/49/50 91/74/86 45/41/42
f 53/49/50 45/41/42 44/40/41
f 21/21/21 43/39/40 6/6/6
f 21/21/21 6/6/6 5/5/5
f 1/1/1 4/4/4 29/29/28
f 1/1/1 29/29/28 12/12/12
f 25/25/24 28/28/27 61/55/57
f 25/25/24 61/55/57 35/32/33
f 57/53/53 60/54/56 77/62/73
f 57/53/53 77/62/73 67/23/63
f 73/42/69 76/61/72 92/75/87
f 73/42/69 92/75/87 83/67/79
f 19/19/19 5/5/5 2/2/2
f 19/19/19 2/2/2 133/112/128
f 2/2/2 1/1/1 11/11/11
f 2/2/2 11/11/11 133/112/128
f 8/8/8 7/7/7 15/15/15
f 8/8/8 15/15/15 134/113/129
f 15/15/15 14/14/14 22/22/19
f 15/15/15 22/22/19 134/113/129
f 13/13/13 12/12/12 26/26/25
f 13/13/13 26/26/25 135/114/130
f 26/26/25 25/25/24 34/9/30
f 26/26/25 34/9/30 135/114/130
f 31/31/30 30/30/29 37/34/34
f 31/31/30 37/34/34 136/114/130
f 37/34/34 10/10/10 9/9/9
f 37/34/34 9/9/9 136/114/130
f 51/47/48 44/40/41 41/37/38
f 51/47/48 41/37/38 137/115/131
f 41/37/38 21/21/21 20/20/20
f 41/37/38 20/20/20 137/115/131
f 24/24/23 23/23/22 47/43/44
f 24/24/23 47/43/44 138/116/132
f 47/43/44 46/42/43 54/50/48
f 47/43/44 54/50/48 138/116/132
f 36/33/31 35/32/33 58/15/54
f 36/33/31 58/15/54 139/113/133
f 58/15/54 57/53/53 66/56/62
f 58/15/54 66/56/62 139/113/133
f 63/19/59 62/5/58 69/2/65
f 63/19/59 69/2/65 140/112/133
f 69/2/65 33/1/32 32/11/31
f 69/2/65 32/11/31 140/112/133
f 68/57/64 67/23/63 74/43/70
f 68/57/64 74/43/70 141/116/134
f 74/43/70 73/42/69 82/66/78
f 74/43/70 82/66/78 141/116/134
f 79/63/75 78/40/74 85/37/80
f 79/63/75 85/37/80 142/117/135
f 85/37/80 65/21/61 64/20/60
f 85/37/80 64/20/60 142/117/135
f 84/68/76 83/67/79 89/72/84
f 84/68/76 89/72/84 143/118/136
f 89/72/84 53/49/50 52/48/49
f 89/72/84 52/48/49 143/118/136
f 56/52/52 55/51/51 93/76/88
f 56/52/52 93/76/88 144/119/136
f 93/76/88 81/65/77 80/64/76
f 93/76/88 80/64/76 144/119/136
f 48/44/45 50/46/47 98/80/93
f 48/44/45 98/80/93 145/120/137
f 98/80/93 97/79/92 101/83/96
f 98/80/93 101/83/96 145/120/137
f 101/83/96 49/45/46 48/44/45
f 101/83/96 48/44/45 145/120/137
f 102/84/97 103/85/98 104/86/99
f 102/84/97 104/86/99 146/121/138
f 104/86/99 95/78/90 94/77/89
f 104/86/99 94/77/89 146/121/138
f 94/77/89 96/75/91 102/84/97
f 94/77/89 102/84/97 146/121/138
f 16/16/16 18/18/18 107/89/102
f 16/16/16 107/89/102 147/122/139
f 107/89/102 100/82/95 99/81/94
f 107/89/102 99/81/94 147/122/139
f 99/81/94 17/17/17 16/16/16
f 99/81/94 16/16/16 147/122/139
f 38/35/35 40/36/37 110/92/105
f 38/35/35 110/92/105 148/123/140
f 110/92/105 109/91/104 108/90/103
f 110/92/105 108/90/103 148/123/140
f 108/90/103 39/28/36 38/35/35
f 108/90/103 38/35/35 148/123/140
f 70/58/66 72/59/68 113/95/108
f 70/58/66 113/95/108 149/124/141
f 113/95/108 112/94/107 111/93/106
f 113/95/108 111/93/106 149/124/141
f 111/93/106 71/4/67 70/58/66
f 111/93/106 70/58/66 149/124/141
f 86/69/81 88/71/83 105/87/100
f 86/69/81 105/87/100 150/125/142
f 105/87/100 106/88/101 114/96/109
f 105/87/100 114/96/109 150/125/142
f 114/96/109 87/70/82 86/69/81
f 114/96/109 86/69/81 150/125/142
f 119/87/114 117/98/112 115/97/110
f 119/87/114 115/97/110 151/126/143
f 115/97/110 43/39/40 42/38/39
f 115/97/110 42/38/39 151/126/143
f 42/38/39 45/41/42 119/87/114
f 42/38/39 119/87/114 151/126/143
f 90/73/85 92/75/87 122/102/117
f 90/73/85 122/102/117 152/127/144
f 122/102/117 121/101/116 120/100/115
f 122/102/117 120/100/115 152/127/144
f 120/100/115 91/74/86 90/73/85
f 120/100/115 90/73/85 152/127/144
f 116/95/111 118/99/113 125/105/120
f 116/95/111 125/105/120 153/128/145
f 125/105/120 4/4/4 3/3/3
f 125/105/120 3/3/3 153/128/145
f 3/3/3 6/6/6 116/95/111
f 3/3/3 116/95/111 153/128/145
f 126/106/121 127/107/122 128/90/123
f 126/106/121 128/90/123 154/123/146
f 128/90/123 28/28/27 27/27/26
f 128/90/123 27/27/26 154/123/146
f 27/27/26 29/29/28 126/106/121
f 27/27/26 126/106/121 154/123/146
f 129/108/124 130/109/125 131/110/126
f 129/108/124 131/110/126 155/129/147
f 131/110/126 60/54/56 59/16/55
f 131/110/126 59/16/55 155/129/147
f 59/16/55 61/55/57 129/108/124
f 59/16/55 129/108/124 155/129/147
f 132/111/127 124/104/119 123/103/118
f 132/111/127 123/103/118 156/130/148
f 123/103/118 76/61/72 75/60/71
f 123/103/118 75/60/71 156/130/148
f 75/60/71 77/62/73 132/111/127
f 75/60/71 132/111/127 156/130/148
f 103/85/98 97/79/92 100/82/95
f 103/85/98 100/82/95 109/91/104
f 121/101/116 124/104/119 130/109/125
f 121/101/116 130/109/125 127/107/122
